<?xml version="1.0" encoding="utf-8"?>
<!-- Generator: Adobe Illustrator 23.0.0, SVG Export Plug-In . SVG Version: 6.00 Build 0)  -->
<svg version="1.1" id="图层_1" xmlns="http://www.w3.org/2000/svg" xmlns:xlink="http://www.w3.org/1999/xlink" x="0px" y="0px"
	 width="24px" height="24px" viewBox="0 0 24 24" style="enable-background:new 0 0 24 24;" xml:space="preserve">
<style type="text/css">
	.st0{fill:#50E3C2;}
	.st1{fill:#44A7EB;}
	.st2{fill:#F5A623;}
	.st3{fill:#FF5225;}
	.st4{fill:none;stroke:#000000;stroke-width:3;stroke-linejoin:round;stroke-miterlimit:10;}
	.st5{fill:none;stroke:#000000;stroke-width:3;stroke-miterlimit:10;}
	.st6{fill:none;stroke:#0C0C0C;stroke-miterlimit:10;}
	.st7{fill:#020202;stroke:#0C0C0C;stroke-miterlimit:10;}
	.st8{fill:none;stroke:#020202;stroke-width:2;stroke-miterlimit:10;}
	.st9{fill:none;stroke:#020202;stroke-miterlimit:10;}
	.st10{fill:none;stroke:#4D93F4;stroke-width:2;stroke-linecap:round;stroke-miterlimit:10;}
	.st11{fill:none;stroke:#4D93F4;stroke-width:2;stroke-miterlimit:10;}
	.st12{fill:none;stroke:#020202;stroke-width:2;stroke-linecap:round;stroke-miterlimit:10;}
	.st13{fill:none;stroke:#FFFFFF;stroke-miterlimit:10;}
	.st14{fill:#FFFFFF;}
	.st15{fill:none;stroke:#666666;stroke-miterlimit:10;}
	.st16{fill:#666666;}
	.st17{fill:#4D93F4;}
	.st18{fill:none;stroke:#4D93F4;stroke-linecap:round;stroke-miterlimit:10;}
	.st19{fill:none;stroke:#2C2C2C;stroke-miterlimit:10;}
	.st20{fill:#0091DB;}
	.st21{fill:#EF5A49;}
	.st22{fill:#E79933;}
	.st23{fill:#4BC0A6;}
	.st24{fill:none;stroke:#FFFFFF;stroke-width:2;stroke-miterlimit:10;}
	.st25{fill:none;stroke:#8C8C8C;stroke-width:2;stroke-miterlimit:10;}
	.st26{fill:none;stroke:#4BB0EF;stroke-width:2;stroke-miterlimit:10;}
	.st27{fill:none;stroke:#8C8C8C;stroke-miterlimit:10;}
	.st28{fill:#2074EF;}
</style>
<g>
	<path class="st14" d="M21.4,21l-2.9-2.9c1.3-2,1.1-4.7-0.6-6.4c-2-2-5.2-2-7.2,0c-2,2-2,5.2,0,7.2c1,1,2.3,1.5,3.6,1.5
		c1,0,2-0.3,2.8-0.9l2.9,2.9L21.4,21z M12.1,17.4c-0.6-0.6-0.9-1.4-0.9-2.2s0.3-1.6,0.9-2.2s1.4-0.9,2.2-0.9s1.6,0.3,2.2,0.9
		s0.9,1.4,0.9,2.2s-0.3,1.6-0.9,2.2C15.3,18.6,13.2,18.6,12.1,17.4z"/>
	<path class="st14" d="M4.6,3.6h7.2v5h4.8v0.7h2V8c0-0.3-0.1-0.5-0.3-0.7l-5.2-5.4c-0.2-0.2-0.4-0.3-0.7-0.3H3.6c-0.6,0-1,0.4-1,1
		v18c0,0.6,0.4,1,1,1h6.5v-2H4.6V3.6z"/>
</g>
</svg>
