<?xml version="1.0" encoding="UTF-8"?>
<svg width="16px" height="16px" viewBox="0 0 16 16" version="1.1" xmlns="http://www.w3.org/2000/svg" xmlns:xlink="http://www.w3.org/1999/xlink">
    <!-- Generator: Sketch 55 (78076) - https://sketchapp.com -->
    <title>andriod</title>
    <desc>Created with Sketch.</desc>
    <g id="手机" stroke="none" stroke-width="1" fill="none" fill-rule="evenodd">
        <g id="画板" transform="translate(-289.000000, -170.000000)" fill="#FFFFFF">
            <path d="M303.075483,175.013828 C302.565017,175.013828 302.150986,175.456467 302.150986,176.002463 L302.150986,179.866103 C302.150986,180.412182 302.564938,180.854821 303.075483,180.854821 C303.586048,180.854821 304,180.412099 304,179.866103 L304,176.002463 C304,175.456467 303.586127,175.013828 303.075483,175.013828 M291.924517,175.013828 C291.413952,175.013828 291,175.456467 291,176.002463 L291,179.866103 C291,180.412182 291.413952,180.854821 291.924517,180.854821 C292.435062,180.854821 292.848935,180.412099 292.848935,179.866103 L292.848935,176.002463 C292.848935,175.456467 292.435062,175.013828 291.924517,175.013828 M293.405323,175.043767 L293.405323,182.102588 C293.405323,182.521872 293.728083,182.861716 294.126266,182.861716 L294.949917,182.861716 L294.949917,185.011282 C294.949917,185.557361 295.36379,186 295.874335,186 C296.384979,186 296.798931,185.557361 296.798931,185.011282 L296.798931,182.861716 L298.237771,182.861716 L298.237771,185.011282 C298.237771,185.557361 298.651724,186 299.162209,186 C299.672853,186 300.086805,185.557361 300.086805,185.011282 L300.086805,182.861716 L300.910376,182.861716 C301.308638,182.861716 301.631379,182.521872 301.631379,182.102588 L301.631379,175.043767 L293.405323,175.043767 M299.44987,171.385946 L300.209752,170.224452 C300.254823,170.15545 300.243605,170.064864 300.184644,170.02205 C300.125664,169.979319 300.041358,170.00057 299.996227,170.069572 L299.206885,171.276088 C298.686744,171.060332 298.10879,170.940057 297.49999,170.940057 C296.89121,170.940057 296.313256,171.060332 295.793115,171.276088 L295.003773,170.069572 C294.958642,170.00057 294.874237,169.979319 294.815277,170.02205 C294.756316,170.064864 294.745177,170.15545 294.790228,170.224452 L295.55013,171.385946 C294.342047,171.977756 293.494753,173.102228 293.386942,174.414685 L301.613058,174.414685 C301.505168,173.102228 300.657953,171.977756 299.44987,171.385946 M295.764743,173.216565 C295.513408,173.216565 295.309597,173.001954 295.309597,172.7373 C295.309597,172.472563 295.513408,172.258035 295.764743,172.258035 C296.016157,172.258035 296.219888,172.472563 296.219888,172.7373 C296.219888,173.001954 296.016157,173.216565 295.764743,173.216565 M299.29214,173.216565 C299.040786,173.216565 298.837074,173.001954 298.837074,172.7373 C298.837074,172.472563 299.040726,172.258035 299.29214,172.258035 C299.543555,172.258035 299.747266,172.472563 299.747266,172.7373 C299.747266,173.001954 299.543555,173.216565 299.29214,173.216565" id="Fill-1备份-2"></path>
        </g>
    </g>
</svg>