<?xml version="1.0" encoding="UTF-8"?>
<svg width="32px" height="32px" viewBox="0 0 32 32" version="1.1" xmlns="http://www.w3.org/2000/svg" xmlns:xlink="http://www.w3.org/1999/xlink">
    <!-- Generator: Sketch 55 (78076) - https://sketchapp.com -->
    <title>android-grey</title>
    <desc>Created with Sketch.</desc>
    <g id="手机" stroke="none" stroke-width="1" fill="none" fill-rule="evenodd">
        <g id="画板" transform="translate(-225.000000, -231.000000)" fill="#C6C6C6">
            <path d="M252.436343,240.882353 C251.378106,240.882353 250.519786,241.773899 250.519786,242.873623 L250.519786,250.655621 C250.519786,251.755513 251.377942,252.647059 252.436343,252.647059 C253.494785,252.647059 254.352941,251.755345 254.352941,250.655621 L254.352941,242.873623 C254.352941,241.773899 253.494949,240.882353 252.436343,240.882353 M229.91668,240.882353 C228.858193,240.882353 228,241.773899 228,242.873623 L228,250.655621 C228,251.755513 228.858193,252.647059 229.91668,252.647059 C230.975126,252.647059 231.833155,251.755345 231.833155,250.655621 L231.833155,242.873623 C231.833155,241.773899 230.975126,240.882353 229.91668,240.882353 M232.791444,240.882353 L232.791444,255.132189 C232.791444,255.978608 233.44944,256.66466 234.261196,256.66466 L235.940331,256.66466 L235.940331,261.004048 C235.940331,262.106433 236.784074,263 237.824896,263 C238.86592,263 239.709824,262.106433 239.709824,261.004048 L239.709824,256.66466 L242.643117,256.66466 L242.643117,261.004048 C242.643117,262.106433 243.487021,263 244.527722,263 C245.568747,263 246.41265,262.106433 246.41265,261.004048 L246.41265,256.66466 L248.091624,256.66466 C248.903541,256.66466 249.561497,255.978608 249.561497,255.132189 L249.561497,240.882353 L232.791444,240.882353 M245.151546,233.806992 L246.700668,231.454588 C246.792552,231.314836 246.769682,231.13137 246.649482,231.044658 C246.529242,230.958115 246.357373,231.001154 246.265368,231.140906 L244.656187,233.584495 C243.595809,233.147518 242.417571,232.903922 241.17645,232.903922 C239.93537,232.903922 238.757132,233.147518 237.696755,233.584495 L236.087573,231.140906 C235.995568,231.001154 235.823497,230.958115 235.703298,231.044658 C235.583098,231.13137 235.560389,231.314836 235.652233,231.454588 L237.201395,233.806992 C234.738555,235.0056 233.011232,237.283023 232.791444,239.941176 L249.561497,239.941176 C249.341548,237.283023 247.614386,235.0056 245.151546,233.806992 M237.582888,237.588235 C237.053713,237.588235 236.624599,237.166784 236.624599,236.647059 C236.624599,236.12717 237.053713,235.705882 237.582888,235.705882 C238.112229,235.705882 238.541176,236.12717 238.541176,236.647059 C238.541176,237.166784 238.112229,237.588235 237.582888,237.588235 M244.769991,237.588235 C244.240717,237.588235 243.811765,237.166784 243.811765,236.647059 C243.811765,236.12717 244.240592,235.705882 244.769991,235.705882 C245.29939,235.705882 245.728342,236.12717 245.728342,236.647059 C245.728342,237.166784 245.29939,237.588235 244.769991,237.588235" id="Fill-1"></path>
        </g>
    </g>
</svg>