<?xml version="1.0" encoding="UTF-8"?>
<svg width="305px" height="562px" viewBox="0 0 305 562" version="1.1" xmlns="http://www.w3.org/2000/svg" xmlns:xlink="http://www.w3.org/1999/xlink">
    <!-- Generator: Sketch 55 (78076) - https://sketchapp.com -->
    <title>编组 8</title>
    <desc>Created with Sketch.</desc>
    <g id="手机" stroke="none" stroke-width="1" fill="none" fill-rule="evenodd">
        <g id="定制服务" transform="translate(-63.000000, -1380.000000)" fill="#D9D9D9" fill-rule="nonzero">
            <g id="编组-7" transform="translate(63.000000, 1380.000000)">
                <g id="编组-8" transform="translate(0.400000, 0.400000)">
                    <path d="M128.368599,70.1 L128.368599,71.1 L38.4173806,71.1 C17.2635517,71.1 0.1,55.2151264 0.1,35.6 C0.1,15.9848736 17.2635517,0.1 38.4173806,0.1 L128.6,0.1 L128.6,1.1 L38.4173806,1.1 C17.7992843,1.1 1.1,16.5551939 1.1,35.6 C1.1,54.6448061 17.7992843,70.1 38.4173806,70.1 L128.368599,70.1 Z M128.368599,210.1 L128.368599,211.1 L38.4173806,211.1 C17.2635517,211.1 0.1,195.215126 0.1,175.6 C0.1,155.984874 17.2635517,140.1 38.4173806,140.1 L128.6,140.1 L128.6,141.1 L38.4173806,141.1 C17.7992843,141.1 1.1,156.555194 1.1,175.6 C1.1,194.644806 17.7992843,210.1 38.4173806,210.1 L128.368599,210.1 Z M128.368599,350.1 L128.368599,351.1 L38.4173806,351.1 C17.2635517,351.1 0.1,335.215126 0.1,315.6 C0.1,295.984874 17.2635517,280.1 38.4173806,280.1 L128.6,280.1 L128.6,281.1 L38.4173806,281.1 C17.7992843,281.1 1.1,296.555194 1.1,315.6 C1.1,334.644806 17.7992843,350.1 38.4173806,350.1 L128.368599,350.1 Z M176.331401,140.1 L266.282619,140.1 C286.900716,140.1 303.6,124.644806 303.6,105.6 C303.6,86.5551939 286.900716,71.1 266.282619,71.1 L176.1,71.1 L176.1,70.1 L266.282619,70.1 C287.436448,70.1 304.6,85.9848736 304.6,105.6 C304.6,125.215126 287.436448,141.1 266.282619,141.1 L176.331401,141.1 L176.331401,140.1 Z M176.331401,280.1 L266.282619,280.1 C286.900716,280.1 303.6,264.644806 303.6,245.6 C303.6,226.555194 286.900716,211.1 266.282619,211.1 L176.1,211.1 L176.1,210.1 L266.282619,210.1 C287.436448,210.1 304.6,225.984874 304.6,245.6 C304.6,265.215126 287.436448,281.1 266.282619,281.1 L176.331401,281.1 L176.331401,280.1 Z M128.368599,490.1 L128.368599,491.1 L38.4173806,491.1 C17.2635517,491.1 0.1,475.215126 0.1,455.6 C0.1,435.984874 17.2635517,420.1 38.4173806,420.1 L128.6,420.1 L128.6,421.1 L38.4173806,421.1 C17.7992843,421.1 1.1,436.555194 1.1,455.6 C1.1,474.644806 17.7992843,490.1 38.4173806,490.1 L128.368599,490.1 Z M176.331401,420.1 L266.282619,420.1 C286.900716,420.1 303.6,404.644806 303.6,385.6 C303.6,366.555194 286.900716,351.1 266.282619,351.1 L176.1,351.1 L176.1,350.1 L266.282619,350.1 C287.436448,350.1 304.6,365.984874 304.6,385.6 C304.6,405.215126 287.436448,421.1 266.282619,421.1 L176.331401,421.1 L176.331401,420.1 Z M176.331401,560.1 L266.282619,560.1 C286.900716,560.1 303.6,544.644806 303.6,525.6 C303.6,506.555194 286.900716,491.1 266.282619,491.1 L176.1,491.1 L176.1,490.1 L266.282619,490.1 C287.436448,490.1 304.6,505.984874 304.6,525.6 C304.6,545.215126 287.436448,561.1 266.282619,561.1 L176.331401,561.1 L176.331401,560.1 Z" id="形状结合"></path>
                    <path d="M146.297078,63.6 L152.805682,69.9278091 L159.314286,63.6 L160.011364,64.3169949 L152.805682,71.3225191 L145.6,64.3169949 L146.297078,63.6 Z M146.297078,68.9333333 L152.805682,75.2611424 L159.314286,68.9333333 L160.011364,69.6503283 L152.805682,76.6558525 L145.6,69.6503283 L146.297078,68.9333333 Z" id="形状结合"></path>
                    <path d="M146.297078,135.6 L152.805682,141.927809 L159.314286,135.6 L160.011364,136.316995 L152.805682,143.322519 L145.6,136.316995 L146.297078,135.6 Z M146.297078,140.933333 L152.805682,147.261142 L159.314286,140.933333 L160.011364,141.650328 L152.805682,148.655852 L145.6,141.650328 L146.297078,140.933333 Z" id="形状结合备份-2"></path>
                    <path d="M146.297078,207.6 L152.805682,213.927809 L159.314286,207.6 L160.011364,208.316995 L152.805682,215.322519 L145.6,208.316995 L146.297078,207.6 Z M146.297078,212.933333 L152.805682,219.261142 L159.314286,212.933333 L160.011364,213.650328 L152.805682,220.655852 L145.6,213.650328 L146.297078,212.933333 Z" id="形状结合备份-3"></path>
                    <path d="M146.297078,276.6 L152.805682,282.927809 L159.314286,276.6 L160.011364,277.316995 L152.805682,284.322519 L145.6,277.316995 L146.297078,276.6 Z M146.297078,281.933333 L152.805682,288.261142 L159.314286,281.933333 L160.011364,282.650328 L152.805682,289.655852 L145.6,282.650328 L146.297078,281.933333 Z" id="形状结合"></path>
                    <path d="M146.449879,346.6 L152.958483,352.927809 L159.467086,346.6 L160.164165,347.316995 L152.958483,354.322519 L145.752801,347.316995 L146.449879,346.6 Z M146.449879,351.933333 L152.958483,358.261142 L159.467086,351.933333 L160.164165,352.650328 L152.958483,359.655852 L145.752801,352.650328 L146.449879,351.933333 Z" id="形状结合备份-4"></path>
                    <path d="M146.449879,416.6 L152.958483,422.927809 L159.467086,416.6 L160.164165,417.316995 L152.958483,424.322519 L145.752801,417.316995 L146.449879,416.6 Z M146.449879,421.933333 L152.958483,428.261142 L159.467086,421.933333 L160.164165,422.650328 L152.958483,429.655852 L145.752801,422.650328 L146.449879,421.933333 Z" id="形状结合备份-5"></path>
                    <path d="M146.449879,486.6 L152.958483,492.927809 L159.467086,486.6 L160.164165,487.316995 L152.958483,494.322519 L145.752801,487.316995 L146.449879,486.6 Z M146.449879,491.933333 L152.958483,498.261142 L159.467086,491.933333 L160.164165,492.650328 L152.958483,499.655852 L145.752801,492.650328 L146.449879,491.933333 Z" id="形状结合备份-6"></path>
                </g>
            </g>
        </g>
    </g>
</svg>