<?xml version="1.0" encoding="UTF-8"?>
<svg width="304px" height="151px" viewBox="0 0 304 151" version="1.1" xmlns="http://www.w3.org/2000/svg" xmlns:xlink="http://www.w3.org/1999/xlink">
    <!-- Generator: Sketch 55 (78076) - https://sketchapp.com -->
    <title>编组 11</title>
    <desc>Created with Sketch.</desc>
    <g id="手机" stroke="none" stroke-width="1" fill="none" fill-rule="evenodd">
        <g id="定制服务" transform="translate(-64.000000, -1522.000000)" stroke="#D9D9D9">
            <g id="编组-7" transform="translate(65.000000, 1384.000000)">
                <g id="编组-11" transform="translate(0.000000, 138.000000)">
                    <path d="M302,150 L204.024096,150 C184.128537,150 168,133.882251 168,114 C168,94.117749 184.128537,78 204.024096,78 L302,78" id="路径备份" stroke-width="1.2" transform="translate(235.000000, 114.000000) scale(-1, 1) translate(-235.000000, -114.000000) "></path>
                    <path d="M134,78 L36.0240964,78 C16.1285373,78 0,61.882251 0,42 C0,22.117749 16.1285373,6 36.0240964,6 L134,6" id="路径备份-2" stroke-width="1.2"></path>
                    <g id="编组-9备份" transform="translate(144.000000, 0.000000)">
                        <g id="编组-8" transform="translate(7.000000, 6.857143) rotate(-270.000000) translate(-7.000000, -6.857143) translate(1.000000, 0.000000)">
                            <polyline id="路径-3" points="2.5313085e-14 13.7142857 6.66666667 6.85714286 2.60532336e-14 0"></polyline>
                            <polyline id="路径-3备份" points="5.33333333 13.7142857 12 6.85714286 5.33333333 0"></polyline>
                        </g>
                    </g>
                    <g id="编组-9备份-2" transform="translate(144.000000, 72.000000)">
                        <g id="编组-8" transform="translate(7.000000, 6.857143) rotate(-270.000000) translate(-7.000000, -6.857143) translate(1.000000, 0.000000)">
                            <polyline id="路径-3" points="2.5313085e-14 13.7142857 6.66666667 6.85714286 2.60532336e-14 0"></polyline>
                            <polyline id="路径-3备份" points="5.33333333 13.7142857 12 6.85714286 5.33333333 0"></polyline>
                        </g>
                    </g>
                </g>
            </g>
        </g>
    </g>
</svg>