<?xml version="1.0" encoding="UTF-8"?>
<svg width="24px" height="24px" viewBox="0 0 24 24" version="1.1" xmlns="http://www.w3.org/2000/svg" xmlns:xlink="http://www.w3.org/1999/xlink">
    <!-- Generator: Sketch 55 (78076) - https://sketchapp.com -->
    <title>custom-demand</title>
    <desc>Created with Sketch.</desc>
    <g id="定制服务" stroke="none" stroke-width="1" fill="none" fill-rule="evenodd">
        <g id="画板" transform="translate(-49.000000, -54.000000)" fill="#5CA2F7">
            <path d="M56,68.1785582 C54.3431458,68.1785582 53,66.816964 53,65.1373524 C53,63.4577409 54.3431458,62.0961467 56,62.0961467 C57.6568542,62.0961467 59,63.4577409 59,65.1373524 C59,66.816964 57.6568542,68.1785582 56,68.1785582 Z M60,76 L52,76 L52,72.8417403 C52,70.8262064 53.5350237,69.1922934 55.4285714,69.1922934 L56.5714286,69.1922934 C58.4649763,69.1922934 60,70.8262064 60,72.8417403 L60,76 Z M67,68.1785582 C65.3431458,68.1785582 64,66.816964 64,65.1373524 C64,63.4577409 65.3431458,62.0961467 67,62.0961467 C68.6568542,62.0961467 70,63.4577409 70,65.1373524 C70,66.816964 68.6568542,68.1785582 67,68.1785582 Z M71,76 L63,76 L63,72.8417403 C63,70.8262064 64.5350237,69.1922934 66.4285714,69.1922934 L67.5714286,69.1922934 C69.4649763,69.1922934 71,70.8262064 71,72.8417403 L71,76 Z M62,61.0824115 L62,62.0961467 L61,61.0824115 L57.2,61.0824115 C56.5372583,61.0824115 56,60.5451532 56,59.8824115 L56,56.2 C56,55.5372583 56.5372583,55 57.2,55 L64.8,55 C65.4627417,55 66,55.5372583 66,56.2 L66,59.8824115 C66,60.5451532 65.4627417,61.0824115 64.8,61.0824115 L62,61.0824115 Z M58,59.054941 C58.5522847,59.054941 59,58.6010762 59,58.0412057 C59,57.4813352 58.5522847,57.0274705 58,57.0274705 C57.4477153,57.0274705 57,57.4813352 57,58.0412057 C57,58.6010762 57.4477153,59.054941 58,59.054941 Z M61,59.054941 C61.5522847,59.054941 62,58.6010762 62,58.0412057 C62,57.4813352 61.5522847,57.0274705 61,57.0274705 C60.4477153,57.0274705 60,57.4813352 60,58.0412057 C60,58.6010762 60.4477153,59.054941 61,59.054941 Z M64,59.054941 C64.5522847,59.054941 65,58.6010762 65,58.0412057 C65,57.4813352 64.5522847,57.0274705 64,57.0274705 C63.4477153,57.0274705 63,57.4813352 63,58.0412057 C63,58.6010762 63.4477153,59.054941 64,59.054941 Z" id="形状结合"></path>
        </g>
    </g>
</svg>