<?xml version="1.0" encoding="UTF-8"?>
<svg width="1099px" height="199px" viewBox="0 0 1099 199" version="1.1" xmlns="http://www.w3.org/2000/svg" xmlns:xlink="http://www.w3.org/1999/xlink">
    <!-- Generator: Sketch 55 (78076) - https://sketchapp.com -->
    <title>编组 20</title>
    <desc>Created with Sketch.</desc>
    <g id="定制服务" stroke="none" stroke-width="1" fill="none" fill-rule="evenodd">
        <g id="编组-20" transform="translate(1.000000, 1.000000)" fill="#D9D9D9" fill-rule="nonzero">
            <polygon id="路径-3" points="130.641503 106.651461 131.358497 107.348539 139.475133 99 131.358497 90.6514608 130.641503 91.3485392 138.080423 99"></polygon>
            <polygon id="路径-3备份" points="136.863725 106.651461 137.58072 107.348539 145.697355 99 137.58072 90.6514608 136.863725 91.3485392 144.302645 99"></polygon>
            <path d="M1,74 L1,68.5252525 C1,31.2336368 31.4430974,1 69,1 C106.556903,1 137,31.2336368 137,68.5252525 L137,74 L139,74 L139,68.5252525 C139,30.1259644 107.658393,-1 69,-1 C30.3416071,-1 -1,30.1259644 -1,68.5252525 L-1,74 L1,74 Z" id="路径"></path>
            <path d="M138,198 L138,192.525253 C138,155.233637 168.443097,125 206,125 C243.556903,125 274,155.233637 274,192.525253 L274,198 L276,198 L276,192.525253 C276,154.125964 244.658393,123 206,123 C167.341607,123 136,154.125964 136,192.525253 L136,198 L138,198 Z" id="路径" transform="translate(206.000000, 160.500000) rotate(-180.000000) translate(-206.000000, -160.500000) "></path>
            <polygon id="路径-3" points="267.641503 106.651461 268.358497 107.348539 276.475133 99 268.358497 90.6514608 267.641503 91.3485392 275.080423 99"></polygon>
            <polygon id="路径-3备份" points="273.863725 106.651461 274.58072 107.348539 282.697355 99 274.58072 90.6514608 273.863725 91.3485392 281.302645 99"></polygon>
            <polygon id="路径-3" points="404.641503 106.651461 405.358497 107.348539 413.475133 99 405.358497 90.6514608 404.641503 91.3485392 412.080423 99"></polygon>
            <polygon id="路径-3备份" points="410.863725 106.651461 411.58072 107.348539 419.697355 99 411.58072 90.6514608 410.863725 91.3485392 418.302645 99"></polygon>
            <polygon id="路径-3" points="540.641503 107.651461 541.358497 108.348539 549.475133 100 541.358497 91.6514608 540.641503 92.3485392 548.080423 100"></polygon>
            <polygon id="路径-3备份" points="546.863725 107.651461 547.58072 108.348539 555.697355 100 547.58072 91.6514608 546.863725 92.3485392 554.302645 100"></polygon>
            <path d="M275,74 L275,68.5252525 C275,31.2336368 305.443097,1 343,1 C380.556903,1 411,31.2336368 411,68.5252525 L411,74 L413,74 L413,68.5252525 C413,30.1259644 381.658393,-1 343,-1 C304.341607,-1 273,30.1259644 273,68.5252525 L273,74 L275,74 Z" id="路径"></path>
            <path d="M412,198 L412,192.525253 C412,155.233637 442.443097,125 480,125 C517.556903,125 548,155.233637 548,192.525253 L548,198 L550,198 L550,192.525253 C550,154.125964 518.658393,123 480,123 C441.341607,123 410,154.125964 410,192.525253 L410,198 L412,198 Z" id="路径" transform="translate(480.000000, 160.500000) rotate(-180.000000) translate(-480.000000, -160.500000) "></path>
            <polygon id="路径-3" points="678.641503 106.651461 679.358497 107.348539 687.475133 99 679.358497 90.6514608 678.641503 91.3485392 686.080423 99"></polygon>
            <polygon id="路径-3备份" points="684.863725 106.651461 685.58072 107.348539 693.697355 99 685.58072 90.6514608 684.863725 91.3485392 692.302645 99"></polygon>
            <polygon id="路径-3" points="817.641503 106.651461 818.358497 107.348539 826.475133 99 818.358497 90.6514608 817.641503 91.3485392 825.080423 99"></polygon>
            <polygon id="路径-3备份" points="823.863725 106.651461 824.58072 107.348539 832.697355 99 824.58072 90.6514608 823.863725 91.3485392 831.302645 99"></polygon>
            <path d="M549,74 L549,68.5252525 C549,31.2336368 579.443097,1 617,1 C654.556903,1 685,31.2336368 685,68.5252525 L685,74 L687,74 L687,68.5252525 C687,30.1259644 655.658393,-1 617,-1 C578.341607,-1 547,30.1259644 547,68.5252525 L547,74 L549,74 Z" id="路径"></path>
            <path d="M686,198 L686,192.525253 C686,155.233637 716.443097,125 754,125 C791.556903,125 822,155.233637 822,192.525253 L822,198 L824,198 L824,192.525253 C824,154.125964 792.658393,123 754,123 C715.341607,123 684,154.125964 684,192.525253 L684,198 L686,198 Z" id="路径" transform="translate(754.000000, 160.500000) rotate(-180.000000) translate(-754.000000, -160.500000) "></path>
            <polygon id="路径-3" points="952.641503 106.651461 953.358497 107.348539 961.475133 99 953.358497 90.6514608 952.641503 91.3485392 960.080423 99"></polygon>
            <polygon id="路径-3备份" points="958.863725 106.651461 959.58072 107.348539 967.697355 99 959.58072 90.6514608 958.863725 91.3485392 966.302645 99"></polygon>
            <path d="M823,74 L823,68.5252525 C823,31.2336368 853.443097,1 891,1 C928.556903,1 959,31.2336368 959,68.5252525 L959,74 L961,74 L961,68.5252525 C961,30.1259644 929.658393,-1 891,-1 C852.341607,-1 821,30.1259644 821,68.5252525 L821,74 L823,74 Z" id="路径"></path>
            <path d="M960,198 L960,192.525253 C960,155.233637 990.443097,125 1028,125 C1065.5569,125 1096,155.233637 1096,192.525253 L1096,198 L1098,198 L1098,192.525253 C1098,154.125964 1066.65839,123 1028,123 C989.341607,123 958,154.125964 958,192.525253 L958,198 L960,198 Z" id="路径" transform="translate(1028.000000, 160.500000) rotate(-180.000000) translate(-1028.000000, -160.500000) "></path>
        </g>
    </g>
</svg>