<?xml version="1.0" encoding="UTF-8"?>
<svg width="16px" height="20px" viewBox="0 0 16 20" version="1.1" xmlns="http://www.w3.org/2000/svg" xmlns:xlink="http://www.w3.org/1999/xlink">
    <!-- Generator: Sketch 55 (78076) - https://sketchapp.com -->
    <title>custom-speediness</title>
    <desc>Created with Sketch.</desc>
    <g id="页面1" stroke="none" stroke-width="1" fill="none" fill-rule="evenodd">
        <g id="custom-speediness" fill="#FFFFFF" fill-rule="nonzero">
            <path d="M11.9958556,10.058008 C13.5484753,10.41581 14.7094237,11.348273 15.4787006,12.855396 C16.1737665,14.217129 16.1737665,16.598664 15.4787006,20 L11.3716058,15.552984 C11.1993836,16.416506 10.9940646,17.289453 10.7585346,18.171826 L5.2414654,18.171826 C5.0059354,17.289453 4.8006164,16.416506 4.6283942,15.552984 L0.5212994,20 C-0.1737665,16.598664 -0.1737665,14.217129 0.5212994,12.855396 C1.2905763,11.348273 2.4515247,10.41581 4.0041444,10.058008 C3.9888934,9.209385 4.0155429,8.370795 4.0872616,7.542236 C4.4163249,4.861544 5.6758764,2.347466 7.99999997,0 C10.3241236,2.347466 11.5836751,4.861544 11.9127384,7.542236 C11.9844571,8.370795 12.0111066,9.209385 11.9958556,10.058008 Z M8,8.811639 C9.0452994,8.811639 9.8926819,7.9735 9.8926819,6.939602 C9.8926819,5.905704 9.0452994,5.067565 8,5.067565 C6.9547006,5.067565 6.1073181,5.905704 6.1073181,6.939602 C6.1073181,7.9735 6.9547006,8.811639 8,8.811639 Z" id="形状结合"></path>
        </g>
    </g>
</svg>