<?xml version="1.0" encoding="UTF-8"?>
<svg width="19px" height="21px" viewBox="0 0 19 21" version="1.1" xmlns="http://www.w3.org/2000/svg" xmlns:xlink="http://www.w3.org/1999/xlink">
    <!-- Generator: Sketch 55 (78076) - https://sketchapp.com -->
    <title>形状结合</title>
    <desc>Created with Sketch.</desc>
    <g id="页面1" stroke="none" stroke-width="1" fill="none" fill-rule="evenodd">
        <path d="M4,13.1785582 C2.3431458,13.1785582 1,11.816964 1,10.1373524 C1,8.4577409 2.3431458,7.0961467 4,7.0961467 C5.6568542,7.0961467 7,8.4577409 7,10.1373524 C7,11.816964 5.6568542,13.1785582 4,13.1785582 Z M8,21 L0,21 L0,17.8417403 C0,15.8262064 1.5350237,14.1922934 3.4285714,14.1922934 L4.5714286,14.1922934 C6.4649763,14.1922934 8,15.8262064 8,17.8417403 L8,21 Z M15,13.1785582 C13.3431458,13.1785582 12,11.816964 12,10.1373524 C12,8.4577409 13.3431458,7.0961467 15,7.0961467 C16.6568542,7.0961467 18,8.4577409 18,10.1373524 C18,11.816964 16.6568542,13.1785582 15,13.1785582 Z M19,21 L11,21 L11,17.8417403 C11,15.8262064 12.5350237,14.1922934 14.4285714,14.1922934 L15.5714286,14.1922934 C17.4649763,14.1922934 19,15.8262064 19,17.8417403 L19,21 Z M10,6.0824115 L10,7.0961467 L9,6.0824115 L5.2,6.0824115 C4.5372583,6.0824115 4,5.5451532 4,4.8824115 L4,1.2 C4,0.5372583 4.5372583,0 5.2,0 L12.8,0 C13.4627417,0 14,0.5372583 14,1.2 L14,4.8824115 C14,5.5451532 13.4627417,6.0824115 12.8,6.0824115 L10,6.0824115 Z M6,4.054941 C6.5522847,4.054941 7,3.6010762 7,3.0412057 C7,2.4813352 6.5522847,2.0274705 6,2.0274705 C5.4477153,2.0274705 5,2.4813352 5,3.0412057 C5,3.6010762 5.4477153,4.054941 6,4.054941 Z M9,4.054941 C9.5522847,4.054941 10,3.6010762 10,3.0412057 C10,2.4813352 9.5522847,2.0274705 9,2.0274705 C8.4477153,2.0274705 8,2.4813352 8,3.0412057 C8,3.6010762 8.4477153,4.054941 9,4.054941 Z M12,4.054941 C12.5522847,4.054941 13,3.6010762 13,3.0412057 C13,2.4813352 12.5522847,2.0274705 12,2.0274705 C11.4477153,2.0274705 11,2.4813352 11,3.0412057 C11,3.6010762 11.4477153,4.054941 12,4.054941 Z" id="形状结合" fill="#FFFFFF" fill-rule="nonzero"></path>
    </g>
</svg>