<?xml version="1.0" encoding="UTF-8"?>
<svg width="19px" height="20px" viewBox="0 0 19 20" version="1.1" xmlns="http://www.w3.org/2000/svg" xmlns:xlink="http://www.w3.org/1999/xlink">
    <!-- Generator: Sketch 55 (78076) - https://sketchapp.com -->
    <title>custom-stabiliazation</title>
    <desc>Created with Sketch.</desc>
    <g id="页面1" stroke="none" stroke-width="1" fill="none" fill-rule="evenodd">
        <g id="custom-stabiliazation" fill="#FFFFFF" fill-rule="nonzero">
            <path d="M17.6632111,3.38327818 L18.0782902,3.43808344 L18.0972485,3.85633563 C18.2221749,6.61243607 17.8895755,8.29406229 16.5224798,12.0124331 C15.6979296,14.2551315 10.3966393,20 9.3476613,20 C8.29868338,20 2.99739306,14.2551315 2.17284277,12.0124331 C0.805747094,8.29406224 0.47314775,6.61243603 0.59807425,3.85633561 L0.617032478,3.43808344 L1.0321116,3.38327819 C2.97156525,3.12720109 5.65659816,2.049932 9.10496047,0.135420365 L9.3476613,0.000674208961 L9.59036213,0.135420365 C13.0387245,2.04993201 15.7237574,3.12720109 17.6632111,3.38327818 Z M6.71978576,8.20351517 C6.33639172,7.80598854 5.70333036,7.79453182 5.30580364,8.17792587 C4.90827701,8.56131984 4.89682026,9.19438118 5.28021424,9.59190783 L8.27221184,12.6941959 C8.70573058,13.1436952 9.44063018,13.0902826 9.80459708,12.5828219 L13.3907562,7.58282169 C13.7126399,7.13403594 13.609765,6.50928411 13.1609785,6.18740074 C12.7121922,5.86551672 12.0874406,5.96839147 11.7655567,6.4171782 L8.87876764,10.4420811 L6.71978576,8.20351517 Z" id="形状结合"></path>
        </g>
    </g>
</svg>