<?xml version="1.0" encoding="UTF-8"?>
<svg width="24px" height="24px" viewBox="0 0 24 24" version="1.1" xmlns="http://www.w3.org/2000/svg" xmlns:xlink="http://www.w3.org/1999/xlink">
    <!-- Generator: Sketch 55 (78076) - https://sketchapp.com -->
    <title>custom-speediness</title>
    <desc>Created with Sketch.</desc>
    <g id="定制服务" stroke="none" stroke-width="1" fill="none" fill-rule="evenodd">
        <g id="画板" transform="translate(-49.000000, -105.000000)" fill="#5CA2F7">
            <path d="M64.9958556,117.058008 C66.5484753,117.41581 67.7094237,118.348273 68.4787006,119.855396 C69.1737665,121.217129 69.1737665,123.598664 68.4787006,127 L64.3716058,122.552984 C64.1993836,123.416506 63.9940646,124.289453 63.7585346,125.171826 L58.2414654,125.171826 C58.0059354,124.289453 57.8006164,123.416506 57.6283942,122.552984 L53.5212994,127 C52.8262335,123.598664 52.8262335,121.217129 53.5212994,119.855396 C54.2905763,118.348273 55.4515247,117.41581 57.0041444,117.058008 C56.9888934,116.209385 57.0155429,115.370795 57.0872616,114.542236 C57.4163249,111.861544 58.6758764,109.347466 61,107 C63.3241236,109.347466 64.5836751,111.861544 64.9127384,114.542236 C64.9844571,115.370795 65.0111066,116.209385 64.9958556,117.058008 Z M61,115.811639 C62.0452994,115.811639 62.8926819,114.9735 62.8926819,113.939602 C62.8926819,112.905704 62.0452994,112.067565 61,112.067565 C59.9547006,112.067565 59.1073181,112.905704 59.1073181,113.939602 C59.1073181,114.9735 59.9547006,115.811639 61,115.811639 Z" id="形状结合"></path>
        </g>
    </g>
</svg>