<?xml version="1.0" encoding="UTF-8"?>
<svg width="16px" height="16px" viewBox="0 0 16 16" version="1.1" xmlns="http://www.w3.org/2000/svg" xmlns:xlink="http://www.w3.org/1999/xlink">
    <!-- Generator: Sketch 55 (78076) - https://sketchapp.com -->
    <title>路径</title>
    <desc>Created with Sketch.</desc>
    <g id="手机" stroke="none" stroke-width="1" fill="none" fill-rule="evenodd">
        <g id="画板" transform="translate(-36.000000, -256.000000)" fill="#FFFFFF" fill-rule="nonzero">
            <path d="M51.0942932,268.737039 C50.8036092,269.019602 50.5129253,269.299159 50.2222413,269.578716 C50.1878594,269.611782 49.8846729,269.906369 49.8440397,269.942441 C49.6658785,270.071699 49.6658785,270.071699 49.5752351,270.122801 C49.2157873,270.31819 48.825083,270.402358 48.4187507,270.441436 C47.562327,270.519591 46.7402853,270.36328 45.9401231,270.086729 C44.6211056,269.632824 43.4646211,268.905374 42.3894031,268.060691 C41.1391496,267.077732 40.0076702,265.974533 39.0074674,264.754101 C38.2041795,263.774148 37.51654,262.725057 37.0852026,261.537691 C36.7726392,260.677978 36.6226088,259.800228 36.7882674,258.892419 C36.8570313,258.525688 36.9758054,258.173987 37.2227305,257.84934 C37.2508612,257.816275 37.550922,257.536717 37.5696758,257.518682 C37.8478572,257.248142 38.1291643,256.983615 38.4010944,256.71007 C38.7167834,256.388429 39.0293468,256.376405 39.3544127,256.689028 C40.2577209,257.551747 41.1579034,258.417473 42.0580859,259.283198 C42.3675237,259.580791 42.3612724,259.875378 42.0518347,260.172971 C41.9268093,260.293211 41.8017839,260.416457 41.6767586,260.536696 C41.4923462,260.708038 41.0422549,261.149918 40.8484656,261.327272 C40.5671586,261.624865 40.5984149,261.9435 40.751571,262.268147 C40.9266065,262.64089 41.1735316,262.971549 41.4673411,263.26313 C42.0205783,263.816232 42.586318,264.360316 43.158309,264.895383 C43.5552645,265.268126 43.9647225,265.628844 44.3835574,265.974533 C44.7086234,266.242067 45.0586943,266.488558 45.4556498,266.656893 C45.7494594,266.780139 46.0307664,266.789157 46.2870684,266.56972 C46.2933197,266.566714 47.2591405,265.598785 47.621714,265.286162 C47.8373828,265.09979 48.1499461,265.12985 48.3656149,265.337263 L50.1284723,267.023624 C50.4597895,267.342259 50.8004836,267.654882 51.1224239,267.985541 C51.3474695,268.213996 51.3255901,268.508584 51.0942932,268.737039 L51.0942932,268.737039 Z" id="路径"></path>
        </g>
    </g>
</svg>