<?xml version="1.0" encoding="UTF-8"?>
<svg width="32px" height="32px" viewBox="0 0 32 32" version="1.1" xmlns="http://www.w3.org/2000/svg" xmlns:xlink="http://www.w3.org/1999/xlink">
    <!-- Generator: Sketch 55 (78076) - https://sketchapp.com -->
    <title>apple-grey</title>
    <desc>Created with Sketch.</desc>
    <g id="手机" stroke="none" stroke-width="1" fill="none" fill-rule="evenodd">
        <g id="画板" transform="translate(-97.000000, -232.000000)" fill="#C6C6C6">
            <path d="M122.387998,249.179628 C122.435001,253.96351 126.948113,255.552669 127,255.576371 C126.959092,255.684031 126.276858,257.844226 124.618453,260.074677 C123.184087,262.000675 121.699825,263.918721 119.357194,263.957323 C117.053596,263.997893 116.313536,262.701259 113.679859,262.701259 C111.047237,262.701259 110.225048,263.918721 108.04648,263.997893 C105.787033,264.076911 104.064511,261.918646 102.618227,259.997627 C99.663575,256.070474 97.4070193,248.900962 100.439698,244.062767 C101.943027,241.659496 104.632733,240.137582 107.553354,240.09705 C109.773885,240.060533 111.871418,241.474632 113.226704,241.474632 C114.586131,241.474632 117.133733,239.775845 119.810311,240.024942 C120.931634,240.067481 124.079379,240.439911 126.098886,243.156513 C125.939863,243.252438 122.342987,245.173457 122.387998,249.179628 Z M113.043026,238.98831 C112.780699,237.245757 113.758379,235.433914 114.87566,234.295877 C116.122535,233.013855 118.226366,232.060592 119.963513,232 C120.185494,233.77568 119.370845,235.558134 118.166122,236.841045 C116.959436,238.122216 114.981156,239.120006 113.043026,238.98831 Z" id="Fill-1"></path>
        </g>
    </g>
</svg>