<?xml version="1.0" encoding="UTF-8"?>
<svg width="16px" height="16px" viewBox="0 0 16 16" version="1.1" xmlns="http://www.w3.org/2000/svg" xmlns:xlink="http://www.w3.org/1999/xlink">
    <!-- Generator: Sketch 55 (78076) - https://sketchapp.com -->
    <title>ios</title>
    <desc>Created with Sketch.</desc>
    <g id="手机" stroke="none" stroke-width="1" fill="none" fill-rule="evenodd">
        <g id="画板" transform="translate(-333.000000, -171.000000)" fill="#FFFFFF">
            <path d="M345.232249,179.438948 C345.252813,181.556797 347.227299,182.260325 347.25,182.270818 C347.232103,182.31848 346.933625,183.274809 346.208073,184.26224 C345.580538,185.114889 344.931174,185.964017 343.906273,185.981106 C342.898448,185.999067 342.574672,185.425041 341.422438,185.425041 C340.270666,185.425041 339.910958,185.964017 338.957835,185.999067 C337.969327,186.034049 337.215724,185.078574 336.582974,184.22813 C335.290314,182.48956 334.303071,179.315581 335.629868,177.173689 C336.287574,176.109749 337.464321,175.43599 338.742092,175.418046 C339.713575,175.40188 340.631246,176.027909 341.224183,176.027909 C341.818932,176.027909 342.933508,175.275847 344.104511,175.386124 C344.59509,175.404956 345.972228,175.569833 346.855763,176.772485 C346.78619,176.814952 345.212557,177.665396 345.232249,179.438948 Z M341.106064,175.226459 C340.991808,174.421934 341.417635,173.585417 341.904265,173.059992 C342.447339,172.46809 343.36366,172.027975 344.120271,172 C344.216955,172.81982 343.862136,173.642768 343.337421,174.23508 C342.81185,174.826589 341.950214,175.287263 341.106064,175.226459 Z" id="Fill-1备份-3"></path>
        </g>
    </g>
</svg>