<?xml version="1.0" encoding="UTF-8"?>
<svg width="24px" height="24px" viewBox="0 0 24 24" version="1.1" xmlns="http://www.w3.org/2000/svg" xmlns:xlink="http://www.w3.org/1999/xlink">
    <!-- Generator: Sketch 55 (78076) - https://sketchapp.com -->
    <title>编组 7</title>
    <desc>Created with Sketch.</desc>
    <g id="组件" stroke="none" stroke-width="1" fill="none" fill-rule="evenodd">
        <g id="画板" transform="translate(0.000000, -120.000000)" fill="#FFFFFF" fill-rule="nonzero">
            <path d="M12,142.5 C17.7989899,142.5 22.5,137.79899 22.5,132 C22.5,126.20101 17.7989899,121.5 12,121.5 C6.20101013,121.5 1.5,126.20101 1.5,132 C1.5,137.79899 6.20101013,142.5 12,142.5 Z M12,141.5 C6.75329488,141.5 2.5,137.246705 2.5,132 C2.5,126.753295 6.75329488,122.5 12,122.5 C17.2467051,122.5 21.5,126.753295 21.5,132 C21.5,137.246705 17.2467051,141.5 12,141.5 Z" id="椭圆形"></path>
            <path d="M14.5795773,132.411468 L9.17229013,127.00418 C8.94256996,126.77446 8.94256996,126.40201 9.17229013,126.17229 C9.4020103,125.94257 9.77446029,125.94257 10.0041805,126.17229 L15.8274128,131.995522 C16.0571329,132.225243 16.0571329,132.597693 15.8274128,132.827413 L10.0041805,138.650645 C9.77446029,138.880365 9.4020103,138.880365 9.17229013,138.650645 C8.94256996,138.420925 8.94256996,138.048475 9.17229013,137.818755 L14.5795773,132.411468 Z" id="路径"></path>
        </g>
    </g>
</svg>