<?xml version="1.0" encoding="UTF-8"?>
<svg width="115px" height="36px" viewBox="0 0 115 36" version="1.1" xmlns="http://www.w3.org/2000/svg" xmlns:xlink="http://www.w3.org/1999/xlink">
    <!-- Generator: Sketch 55 (78076) - https://sketchapp.com -->
    <title>white-logo</title>
    <desc>Created with Sketch.</desc>
    <g id="组件" stroke="none" stroke-width="1" fill="none" fill-rule="evenodd">
        <g id="mobile/header/white" transform="translate(-13.000000, -12.000000)">
            <g id="logo" transform="translate(13.000000, 12.000000)">
                <path d="M47.6988417,17.4345523 C46.3948073,17.4345523 45.1693523,17.4345523 43.9099105,17.4345523 C44.4551464,18.4734948 45.208401,19.2825455 46.3109248,19.8490803 C46.7732424,19.0442376 47.2251952,18.2584419 47.6988417,17.4345523 Z M40.7936196,28.7687018 L41.655185,28.7687018 L42.6161252,32.2684055 C42.645113,32.3736816 42.6668535,32.5173672 42.6813474,32.6994665 L42.7161325,32.6994665 C42.7277276,32.5429749 42.7552656,32.3950214 42.7987473,32.2556017 L43.833606,28.7687018 L44.6206204,28.7687018 L45.6293902,32.2726734 C45.658378,32.3751042 45.6815679,32.5202125 45.6989605,32.7080024 L45.7380938,32.7080024 C45.7438914,32.5828091 45.76998,32.4377009 45.8163605,32.2726734 L46.75556,28.7687018 L47.5817077,28.7687018 L46.1468196,33.4890338 L45.2597978,33.4890338 L44.3032057,30.1771191 C44.2626228,30.0348541 44.2365342,29.8840553 44.2249391,29.7247184 L44.2075465,29.7247184 C44.1988502,29.8442211 44.1655147,29.9921746 44.1075392,30.1685833 L43.0726805,33.4890338 L42.2117476,33.4890338 L40.7809299,28.8104472 L39.3587315,33.4890338 L38.4717098,33.4890338 L37.5151177,30.1771191 C37.4745348,30.0348541 37.4484462,29.8840553 37.4368511,29.7247184 L37.4194585,29.7247184 C37.4107622,29.8442211 37.3774267,29.9921746 37.3194512,30.1685833 L36.2845925,33.4890338 L35.4236596,33.4890338 L33.9800752,28.7687018 L34.8670969,28.7687018 L35.8280371,32.2684055 C35.8570249,32.3736816 35.8787654,32.5173672 35.8932593,32.6994665 L35.9280445,32.6994665 C35.9396396,32.5429749 35.9671776,32.3950214 36.0106593,32.2556017 L37.045518,28.7687018 L37.8325324,28.7687018 L38.8413022,32.2726734 C38.87029,32.3751042 38.8934798,32.5202125 38.9108725,32.7080024 L38.9500058,32.7080024 C38.9558034,32.5828091 38.981892,32.4377009 39.0282724,32.2726734 L39.9674719,28.7687018 L40.7681632,28.7687018 L40.7936196,28.7687018 L40.7809299,28.8104472 Z M49.4085199,11.6000101 C49.576773,11.6008307 49.7302306,11.6518469 49.8766516,11.7545864 C50.3507802,12.0872429 50.8338274,12.4086042 51.3094023,12.7399318 C51.3920795,12.7979585 51.4670434,12.8737031 51.5239292,12.9540988 C51.6572251,13.1427961 51.5791277,13.280997 51.3397735,13.2931781 C51.2631223,13.2971647 51.1855069,13.294064 51.1083737,13.294064 C46.9050921,13.294064 42.7015695,13.294064 38.4982879,13.294064 C38.3835522,13.294064 38.2690575,13.294064 38.0776705,13.294064 C38.0776705,14.5615695 38.0776705,15.8086991 38.0776705,17.0744328 C38.1591426,17.0744328 38.254836,17.0744328 38.3505295,17.0744328 C41.8017616,17.0744328 45.2534758,17.0724395 48.7049489,17.0786408 C48.9194759,17.0790838 49.059521,17.0230504 49.1916117,16.8677959 C49.4825488,16.5260589 49.8004825,16.2040333 50.0959994,15.8658399 C50.2025397,15.7444712 50.302813,15.7178941 50.43635,15.8084777 C50.6684729,15.9657254 50.9015601,16.1218658 51.1288622,16.2850934 C51.447278,16.5134348 51.7702736,16.7375682 52.0696471,16.9853995 C52.1694383,17.0682314 52.202461,17.2186134 52.3022522,17.4062034 C50.9538661,17.4062034 49.7086457,17.4062034 48.4634254,17.4062034 C48.4535427,17.4330019 48.4431779,17.460022 48.4328131,17.487042 C48.8372807,17.7322156 49.245846,17.9714093 49.6418772,18.2278782 C49.7137076,18.2743881 49.7797529,18.3995219 49.7640853,18.4728303 C49.7438378,18.5645213 49.6459749,18.6502324 49.5625746,18.7188898 C49.5194281,18.7549904 49.431689,18.7676145 49.3697414,18.7587555 C49.059521,18.7144603 48.8536715,18.8730369 48.6258873,19.032278 C48.0599219,19.4287195 47.4746731,19.8016845 46.8626688,20.2069851 C48.5381482,21.137183 50.40164,21.4118129 52.4030075,21.5657385 C52.2653728,21.6700536 52.1986043,21.752664 52.1101421,21.7838921 C51.2358846,22.0893071 50.6274959,22.6534057 50.2095299,23.4081948 C50.1427614,23.5280132 50.0805727,23.6511537 49.8834008,23.5780667 C48.1413939,22.9331295 46.5247286,22.1116761 45.2474497,20.8111708 C44.3563193,19.9037848 43.7672139,18.8513323 43.505925,17.6533702 C43.459886,17.4440757 43.3661209,17.4008879 43.1629229,17.4057604 C42.7194066,17.4161698 42.2758902,17.4130691 41.8323739,17.4068678 C41.6797946,17.404653 41.6190522,17.4615723 41.5301078,17.5811692 C41.1967475,18.0281071 41.1912035,18.5180114 41.2025325,19.0269625 C41.2194054,19.8045637 41.2066302,20.5828293 41.2066302,21.3985243 C41.6860617,21.2955381 42.1303012,21.19676 42.57671,21.1046261 C43.064819,21.0042976 43.5546153,20.9086201 44.0441706,20.8142714 C44.1384178,20.7961104 44.2442351,20.7662112 44.3290817,20.7896876 C44.418026,20.8142714 44.488169,20.895996 44.5667486,20.9526938 C44.5144426,21.0078412 44.4744297,21.0849147 44.4091074,21.1141495 C43.8568814,21.3650815 43.2824795,21.5792485 42.7480905,21.8583079 C41.8200808,22.3422323 40.9140058,22.8618143 40.00311,23.3736446 C39.7692997,23.5049797 39.6285315,23.47951 39.5007795,23.2598061 C39.2744415,22.8700089 39.0399082,22.4837553 38.8101956,22.0957298 C38.7202872,21.9442405 38.7236617,21.8124624 38.8369512,21.6541073 C39.0461753,21.3624238 39.1476537,21.0372975 39.143556,20.6762921 C39.1302987,19.6052356 39.1387352,18.5339576 39.1387352,17.4135121 C38.771629,17.4135121 38.4197084,17.4022168 38.0704393,17.4248073 C38.0140356,17.4285724 37.941241,17.577847 37.9231629,17.6677662 C37.7228575,18.6661786 37.3991387,19.6251684 36.8717399,20.5210376 C36.1772994,21.6999528 35.2059022,22.6394527 33.9724929,23.3528259 C33.8372686,23.4305639 33.7075883,23.5107381 33.5706767,23.3324502 C34.3299574,22.5758892 34.8747112,21.7012816 35.2697782,20.7442851 C35.791633,19.4801018 36.0203814,18.1627644 36.0507526,16.8199572 C36.0753388,15.7404846 36.0478601,14.6594617 36.0112218,13.5799892 C35.9989287,13.220977 35.8863623,12.8652871 35.8229684,12.5076038 C35.8053724,12.4068324 35.8003105,12.3045106 35.7831966,12.1403971 C36.0960684,12.2473699 36.3715788,12.3069468 36.6092458,12.4292014 C37.3844352,12.8278577 38.208074,12.8987299 39.0828136,12.8900923 C42.013155,12.8617435 44.9442196,12.8774682 47.874802,12.8834481 C48.0787231,12.883891 48.2149116,12.8333946 48.3354323,12.6812408 C48.6027718,12.3430048 48.8861409,12.0157634 49.1639081,11.6846599 C48.8771642,11.7688972 48.5773641,11.8075936 48.2717225,11.8184054 C47.6084918,11.8413588 47.4863243,11.7433288 47.3477839,11.1274134 C47.2545839,11.1274134 47.1558424,11.1274134 47.056849,11.1274134 C44.3978804,11.1274134 41.73866,11.128848 39.0791876,11.1247833 C38.8849791,11.1245442 38.7575219,11.1384119 38.6686042,11.351926 C38.6021048,11.5121214 38.420239,11.6519935 38.2552499,11.7471543 C37.8648178,11.9721452 37.425015,12.0323978 36.973877,11.9848173 C36.5773995,11.9432144 36.4232418,11.7696295 36.4373477,11.3944854 C36.4907487,9.97113741 36.5554849,8.54778943 36.597047,7.12396326 C36.6096416,6.69621766 36.569087,6.26608109 36.5363411,5.8378573 C36.5187087,5.60904091 36.6129162,5.54831012 36.8139257,5.64275367 C37.3985663,5.9174768 37.9753983,6.20678489 38.5605426,6.48031254 C38.6980755,6.54462979 38.8560116,6.60655607 39.0051315,6.60703426 C41.633873,6.61468539 44.2631184,6.61492448 46.8921118,6.60559968 C47.0298966,6.60512148 47.2034499,6.5338704 47.2999245,6.43990504 C48.0493022,5.71161377 48.0885973,5.69392055 49.04503,6.14366313 C49.3954113,6.30864047 49.735717,6.49704937 50.0644356,6.69884774 C50.4568829,6.93985811 50.4556234,7.19832261 50.0457956,7.40514203 C49.8248866,7.51656151 49.7944077,7.64184865 49.8064985,7.85392821 C49.8646855,8.87511404 49.9090185,9.89725625 49.9422682,10.9196376 C49.947306,11.0721818 49.8699753,11.226878 49.8306802,11.3806177 C49.8085137,11.3947245 49.7863472,11.4090703 49.7641807,11.422938 C49.6489125,11.4925923 49.5301588,11.5511266 49.4085199,11.6000101 Z M100.934597,16.8888605 C100.934492,17.8882515 100.935016,18.8876125 100.938867,19.8869006 C100.9429,20.8346888 100.992048,21.7817653 100.999861,22.7295534 C101.001373,22.8675946 100.924753,23.0450084 100.818391,23.1391705 C100.354636,23.5494992 99.8155205,23.7176628 99.1811334,23.5124985 C98.9865578,23.4494075 98.8600333,23.3554825 98.8605373,23.1552991 C98.8615455,22.8908387 98.8668384,22.6263783 98.8776761,22.3621551 C98.9240517,21.2262799 99.0004201,20.0901675 99.0140303,18.9540552 C99.037218,17.0577674 99.0205833,15.1610053 99.0205833,13.2642431 C99.0205833,13.1608308 99.0205833,13.0574185 99.0205833,12.8577094 C98.9008639,12.9969365 98.8418863,13.073547 98.7743393,13.143042 C97.8863991,14.059759 96.9987109,14.9767131 96.1044697,15.8877377 C96.0432237,15.9498799 95.927537,15.9650597 95.8375583,16.0020605 C95.8247043,15.9771561 95.8118502,15.9527262 95.7992481,15.928059 C95.8100859,15.9024431 95.8158828,15.873981 95.8315094,15.8516857 C97.8606909,13.0033405 99.0541048,9.82602083 99.9677532,6.53935923 C100.146954,5.89350663 100.145946,5.89872468 100.803521,6.18476884 C101.506967,6.4902621 102.223268,6.7696651 102.927218,7.07349807 C103.026018,7.11619123 103.089028,7.23264868 103.168421,7.3149516 C103.077434,7.38990181 102.998545,7.49687189 102.89168,7.53434699 C102.424648,7.70037594 102.065742,7.92854715 101.863353,8.40718489 C101.562668,9.11684004 101.171753,9.79281504 100.809318,10.5019958 C100.974909,10.6054081 101.152094,10.7119039 101.324238,10.8243292 C101.580311,10.9920184 101.614841,11.234895 101.346921,11.3665323 C100.938363,11.5674273 100.928029,11.8693628 100.929541,12.2341521 C100.936007,13.6883294 100.934937,15.1425838 100.934643,16.5967835 L106.35725,16.5967835 C106.35725,15.1353999 106.35725,13.674951 106.35725,12.1768809 C105.781927,12.1768809 105.211604,12.2161378 104.650032,12.165431 C104.130966,12.1186967 103.884185,12.2860057 103.679159,12.7348893 C103.192346,13.8030032 102.557515,14.7989125 101.73266,15.6772848 C101.659901,15.7548639 101.533885,15.7892136 101.432872,15.8438928 C101.424621,15.7335997 101.379115,15.6120904 101.41387,15.5148829 C102.108708,13.5536753 102.455502,11.5300773 102.662529,9.4812428 C102.702534,9.08143032 102.744539,8.68138416 102.770793,8.28063698 C102.786545,8.0474325 102.918311,7.96985346 103.126338,8.04883454 C103.875934,8.33251213 104.620779,8.62693862 105.362623,8.92790793 C105.584152,9.01763791 105.594403,9.25271176 105.367374,9.32117761 C104.86781,9.47189593 104.735043,9.8345546 104.623529,10.2490884 C104.485511,10.7624654 104.308739,11.2662619 104.139717,11.8039407 C104.884812,11.8039407 105.606154,11.8039407 106.334747,11.8039407 C106.334747,9.88876646 106.334747,7.97125549 106.334747,6 C106.473015,6.0091132 106.647287,6.00233672 106.812808,6.03458343 C107.477643,6.16357028 108.139727,6.30190399 108.800812,6.44514482 C108.896574,6.46547427 109.056844,6.53043504 109.057345,6.57483268 C109.057345,6.70311851 108.991836,6.83163801 108.949331,6.9594565 C108.94408,6.97487884 108.923577,6.9926379 108.906325,6.99684399 C108.447767,7.11438092 108.521526,7.45647647 108.522526,7.77427014 C108.525527,9.00759002 108.523526,10.2413772 108.523526,11.4749308 C108.523526,11.576578 108.523526,11.6786926 108.523526,11.8254385 C108.957582,11.8254385 109.373385,11.830813 109.787938,11.818662 C109.843445,11.81726 109.900702,11.7293994 109.948958,11.6751875 C110.346509,11.2316784 110.74306,10.7872346 111.13811,10.3411551 C111.251374,10.213804 111.379891,10.1799216 111.52991,10.2773627 C112.177242,10.697271 112.825325,11.1171792 113.469407,11.5415273 C113.549668,11.5945708 113.630678,11.6639713 113.674183,11.7434197 C113.733691,11.8518434 113.757694,11.9773252 113.796699,12.0953295 C113.687185,12.1224354 113.578421,12.1731422 113.469407,12.1731422 C111.949713,12.1787503 110.42952,12.1768809 108.909826,12.1768809 C108.792561,12.1768809 108.675546,12.1768809 108.541529,12.1768809 C108.541529,13.6642021 108.541529,15.1178745 108.541529,16.6157109 C108.94658,16.6157109 109.359133,16.5696775 109.755684,16.6255251 C110.498778,16.7302101 110.98134,16.4706007 111.324134,15.8616519 C111.474153,15.5947987 111.721684,15.3730441 111.939962,15.1428774 C112.084481,14.990056 112.229999,14.9865509 112.429775,15.1241836 C112.911836,15.456465 113.426902,15.7457507 113.919215,16.0651801 C114.139993,16.2081872 114.348519,16.3722248 114.541794,16.5463103 C114.605302,16.6030926 114.653808,16.7453987 114.621054,16.8068544 C114.577549,16.8867702 114.452533,16.93958 114.35102,16.9772012 C114.282011,17.0026714 114.19325,16.982342 114.113239,16.982342 C112.383519,16.9825756 110.653798,16.9825756 108.924078,16.9825756 C108.805312,16.9825756 108.686547,16.9825756 108.523526,16.9825756 C108.523526,17.1010472 108.523526,17.1998904 108.523526,17.2984999 C108.523526,18.737451 108.519276,20.1764021 108.527027,21.6155868 C108.529027,21.9698333 108.589035,22.3243135 108.582534,22.6780926 C108.580284,22.8164263 108.505524,22.9860721 108.401511,23.0851489 C107.896947,23.5662792 107.302121,23.7314852 106.598031,23.4898685 C106.322996,23.3959325 106.185728,23.2393723 106.203481,22.9725191 C106.238485,22.4420841 106.304493,21.9130511 106.316245,21.3823824 C106.347999,19.9537129 106.35875,18.5248097 106.376253,17.0959065 C106.376753,17.0697352 106.363001,17.043564 106.35875,17.027207 C104.841057,17.027207 103.352367,17.0267396 101.863927,17.027908 C101.764414,17.027908 101.662401,17.0283753 101.565139,17.0475364 C101.289824,17.1016013 101.090965,17.0324887 100.934597,16.8888605 Z M77.6642827,9.42894331 C77.3905505,9.42894331 77.1228805,9.38542992 76.8759619,9.43882203 C76.4520734,9.53102339 76.2156471,9.31863098 76.0172263,9.02650322 C76.5145608,9.02650322 77.0200561,9.02015261 77.525085,9.03026654 C77.7048529,9.03379465 77.7773662,8.98040254 77.8242318,8.79364776 C78.1086895,7.6653572 78.4080695,6.54059476 78.7177086,5.41889001 C78.7431233,5.32574783 78.9044714,5.18485851 78.9681246,5.20132304 C79.7217042,5.39513405 80.4689884,5.61434748 81.2176716,5.82697509 C81.2265318,5.86554913 81.2351588,5.90412316 81.2437858,5.9426972 C81.146324,6.0396027 81.0651837,6.17225976 80.9481363,6.22612228 C80.671373,6.35431039 80.5305432,6.56152823 80.43961,6.84730539 C80.2372254,7.48166011 80.0073277,8.10731216 79.7895543,8.73672753 C79.7599428,8.82257828 79.7340618,8.91031069 79.6976885,9.0257976 C80.330257,9.0257976 80.9257528,9.0321482 81.5214817,9.01827095 C81.5984252,9.01638929 81.6844619,8.92089503 81.7474157,8.8512736 C82.0537906,8.51139871 82.3562017,8.1677605 82.654649,7.82035897 C82.8048054,7.64512935 82.9673193,7.67358946 83.1172425,7.79354531 C83.5693436,8.15600012 84.0207452,8.5203366 84.4541934,8.90466571 C84.56308,9.0008656 84.6050492,9.17444876 84.7160343,9.38566513 C84.5071212,9.38566513 84.3982345,9.38566513 84.2893479,9.38566513 C82.8253236,9.38566513 81.3612994,9.38989886 79.8965757,9.38096098 C79.6834656,9.37954973 79.5939314,9.4472895 79.5251486,9.65380172 C79.0250161,11.1586595 78.5094949,12.6581076 77.9995696,14.1592021 C77.9699581,14.2462289 77.9471082,14.3353725 77.9156313,14.4412159 C78.488044,14.4412159 79.0355084,14.4412159 79.5992941,14.4412159 C79.6116517,14.388059 79.6347348,14.3360782 79.6338021,14.2848029 C79.6160818,13.4317052 79.7126109,12.5720216 79.5095268,11.7283322 C79.505563,11.7097508 79.504164,11.6909342 79.5018324,11.6721176 C79.4482052,11.2160502 79.4894748,11.1718312 79.9380785,11.2586227 C80.4960352,11.366583 81.0523598,11.479953 81.6070522,11.6020257 C81.8845149,11.6634149 81.9159918,11.7699639 81.7523121,12.0112869 C81.7418198,12.0268106 81.7341255,12.0484497 81.7196694,12.0562115 C81.3020763,12.2787178 81.4076986,12.6736313 81.4049007,13.0311467 C81.4021028,13.4592245 81.4044344,13.8873022 81.4044344,14.3156151 C81.4305485,14.3254938 81.4564295,14.3356077 81.4818442,14.3457217 C81.6184771,14.1871918 81.7541774,14.0274859 81.8926756,13.8698968 C82.096226,13.6379822 82.2988438,13.4046563 82.5079901,13.1779162 C82.6150115,13.0619589 82.7441833,13.0250313 82.8798835,13.1351085 C83.3522698,13.5170855 83.8330498,13.8889486 84.2870162,14.2916239 C84.4059289,14.3967617 84.4397373,14.599981 84.5395307,14.8166072 C83.4483325,14.8166072 82.4536634,14.8166072 81.4317143,14.8166072 C81.4317143,15.5499843 81.4317143,16.2570181 81.4317143,17.0200314 C82.5128865,16.7488371 83.5826338,16.4807005 84.6628734,16.2095062 C84.804869,16.3819133 84.7589361,16.4818765 84.5626137,16.5898368 C83.5817012,17.1308141 82.6103483,17.6887264 81.6308347,18.2320558 C81.4627249,18.325198 81.3990717,18.4345695 81.4000043,18.6302622 C81.4086313,19.9944659 81.3976727,21.3584344 81.4104966,22.7228733 C81.4130614,22.9971253 81.3225945,23.1914067 81.0833703,23.2819616 C80.7546119,23.405916 80.4181591,23.5258718 80.0742451,23.586085 C79.7412898,23.643946 79.639398,23.5239902 79.6384654,23.1768239 C79.6347348,22.057236 79.6370664,20.9376481 79.6366001,19.8180602 C79.6366001,19.7072775 79.6366001,19.5969651 79.6366001,19.4287918 C79.5046304,19.4986484 79.4167283,19.5386337 79.3355879,19.5896737 C78.6151173,20.0408018 77.9002426,20.5006325 77.1748756,20.9437635 C76.7488886,21.2036678 76.6985256,21.1912018 76.4956747,20.7266669 C76.2524867,20.1685195 76.039843,19.5960243 75.8185722,19.0284685 C75.7849969,18.9419122 75.7644787,18.8464179 75.7584164,18.7539813 C75.7439604,18.5291229 75.7922249,18.3983475 76.0713199,18.3367232 C77.2075183,18.0862271 78.3346234,17.7931585 79.4635939,17.5083222 C79.5281797,17.4918577 79.6251751,17.4123575 79.6261078,17.3613175 C79.6361337,16.5260955 79.6331026,15.6908736 79.6331026,14.8246042 C79.0833066,14.8246042 78.5638217,14.8182536 78.0441036,14.8314252 C77.9680928,14.8333069 77.8888177,14.9215097 77.8205012,14.980782 C77.6411996,15.1376654 77.4674939,15.3004291 77.2571818,15.4923584 C76.7913241,15.0628695 76.3396893,14.6705433 75.9174329,14.2488162 C75.6665506,13.9980849 75.6779756,13.8694264 75.9633659,13.6871406 C76.3431868,13.4444064 76.5371775,13.1021794 76.6642508,12.6832748 C76.9715584,11.6685895 77.3000836,10.6602548 77.6188161,9.64909757 C77.6407333,9.57971135 77.6484277,9.50562097 77.6642827,9.42894331 Z M88.0096243,14.8463466 C87.9372598,15.2708504 87.8762969,15.6979673 87.7909022,16.1196206 C87.3969699,18.0706279 86.6526169,19.8475102 85.2809505,21.3055989 C84.3092662,22.337996 83.1423609,23.0608641 81.8365438,23.56471 C81.6534223,23.6352627 81.5342886,23.6115075 81.4703008,23.3874968 C81.5326598,23.3492511 81.591994,23.3102927 81.6534223,23.2751352 C83.5186094,22.205205 84.6643405,20.5523243 85.3437749,18.5236378 C85.8468356,17.0192266 86.0534581,15.4604162 86.1153518,13.8807013 C86.1435065,13.1599713 86.1207035,12.4371032 86.1186094,11.7151854 C86.118144,11.6030613 86.1025543,11.4911747 86.0948757,11.3868898 C85.8049527,11.3073101 85.6122911,11.3676481 85.4273081,11.6109005 C84.9991714,12.1722337 84.5319439,12.7031605 84.0817023,13.246915 C83.9788564,13.3704415 83.8485539,13.4946808 83.7175533,13.3390848 C83.6598479,13.2706701 83.6812548,13.0682765 83.7394255,12.9720683 C84.8418777,11.1479133 85.5799482,9.18716646 85.8763864,7.06132155 C85.9431664,6.58241851 85.9776035,6.09876445 86.013902,5.61629814 C86.0371703,5.30486863 86.1935333,5.13478203 86.473451,5.2233886 C87.2443298,5.46830379 88.0082282,5.7369741 88.7693343,6.01134564 C88.964788,6.08142321 88.968511,6.38667639 88.7579328,6.44463886 C88.2022858,6.59809688 88.0808253,7.09101544 87.849073,7.51195601 C87.2841186,8.53746416 86.7075301,9.55608333 86.1353626,10.5768405 C86.0811474,10.6732862 86.0243728,10.7683067 85.9508449,10.8958716 C86.0543889,10.902523 86.1239611,10.9113124 86.1935333,10.9113124 C87.4681709,10.9122626 88.7430411,10.9089369 90.0176787,10.9151132 C90.1835817,10.9160635 90.2873583,10.8787679 90.372753,10.7179458 C90.4781584,10.5195906 90.624516,10.3433277 90.7585414,10.161126 C90.9163005,9.94661736 91.136186,9.88485407 91.3493236,10.0250092 C92.1222966,10.5307555 92.886893,11.0507549 93.6421821,11.5835821 C93.7224577,11.6401192 93.7762075,11.8377618 93.7415377,11.9315945 C93.7103582,12.0171129 93.541663,12.1000182 93.4343961,12.0988304 C92.1036819,12.0833896 91.0794113,12.6919956 90.2431485,13.6984996 C90.1949832,13.7562246 90.14961,13.8168001 90.0995831,13.8726246 C90.0037177,13.9799977 89.8841186,14.1187275 89.7547469,13.9795226 C89.6751693,13.8940042 89.6288654,13.7034882 89.6642332,13.5925518 C89.8354879,13.0616251 90.0442046,12.5435261 90.230351,12.017588 C90.3027154,11.8144818 90.3504154,11.6025862 90.415334,11.3709738 C89.3738448,11.3709738 88.3653966,11.3709738 87.3569484,11.3709738 C87.351364,11.3885526 87.3460123,11.4063689 87.341126,11.4239477 C87.6764222,11.541298 88.0145106,11.6517592 88.3463166,11.7790866 C88.4498605,11.8187577 88.5943567,11.8878851 88.6157635,11.971503 C88.6357743,12.0506076 88.5431664,12.2057284 88.4584698,12.2584648 C88.1890229,12.4268885 88.1790175,12.6375964 88.2343961,12.9307344 C88.6739343,15.2354553 89.4378326,17.3919443 90.9258405,19.2272642 C91.6687974,20.1434989 92.5485719,20.8965359 93.551203,21.5022912 C93.6203099,21.5441002 93.6675445,21.6234423 93.7247845,21.6852056 C93.6512567,21.7282023 93.5821498,21.7959044 93.503503,21.8108701 C92.6100002,21.9783437 91.8419136,22.3439348 91.3339665,23.1608731 C91.2043621,23.3692054 90.9844766,23.3340478 90.8134546,23.097922 C90.2287222,22.291436 89.7845303,21.4063206 89.4234063,20.4767831 C88.7325704,18.7020387 88.3463166,16.8500902 88.0826867,14.9670226 C88.077335,14.9302021 88.0708199,14.8929066 88.0654682,14.8563238 C88.0468535,14.8527605 88.0282389,14.8496723 88.0096243,14.8463466 Z M60.3331261,12.7179965 C60.3331261,13.2449565 60.3386316,13.7221988 60.3303734,14.1994411 C60.3273704,14.3638376 60.4207136,14.3856477 60.5623551,14.4241085 C61.2222642,14.603045 61.8899311,14.7674415 62.5273177,15.0012551 C63.0165564,15.1804262 63.4056951,15.5195379 63.6847238,15.9496423 C63.9970357,16.4304023 63.9139527,17.1494318 63.5032926,17.5450622 C63.0636034,17.9678965 62.3899305,17.9826711 62.0022933,17.5206724 C61.7550464,17.2261189 61.5683599,16.870591 61.4304722,16.5162356 C61.230022,16.0005325 61.0093015,15.5057014 60.6264191,15.0833361 C60.5570999,15.0068835 60.5100529,14.9119041 60.4529959,14.8256018 C60.4152081,14.8476464 60.3776706,14.8699255 60.3401331,14.8919701 C60.3401331,15.0082906 60.3381311,15.1246111 60.3406336,15.2409316 C60.3934364,17.8759658 60.4452381,20.5107655 60.5032961,23.1460342 C60.5073001,23.3383383 60.4792721,23.4959338 60.2868299,23.5993558 C59.809353,23.8559175 59.2990933,24.0125749 58.7467917,23.9992075 C58.2960915,23.9884197 58.188484,23.8573246 58.1982438,23.4415258 C58.250546,21.2849065 58.2998453,19.1282871 58.3498953,16.9719023 C58.351647,16.8893523 58.3503958,16.8065678 58.3503958,16.6677337 C58.2680635,16.7486421 58.2197653,16.7878064 58.1827283,16.8344753 C57.2417885,18.0105786 56.1366847,19.0417503 54.9762757,20.0241425 C54.9157152,20.0755017 54.8141137,20.0846479 54.7315312,20.1134935 C54.7440437,20.0159344 54.7212709,19.8953926 54.7743239,19.8250375 C56.3428906,17.73549 57.4494959,15.4398021 58.2588043,13.0104394 C58.2880835,12.9229645 58.310606,12.833848 58.3381335,12.7402757 C57.5581044,12.7402757 56.7988461,12.7374615 56.039838,12.7423863 C55.8203687,12.7437934 55.6008995,12.7731081 55.3809298,12.7796745 C54.9264759,12.7932765 54.9029524,12.7756877 54.7015012,12.3418311 C55.9322305,12.3418311 57.157204,12.3418311 58.4069523,12.3418311 C58.4069523,11.0988904 58.4069523,9.86673755 58.4069523,8.59565483 C57.0993963,8.70259463 55.788587,8.85057492 54.4715215,8.77670204 C54.4645145,8.74762191 54.4572572,8.71854179 54.45,8.68922715 C54.5403402,8.64889021 54.6264262,8.59049545 54.7212709,8.57149957 C56.7988461,8.15335556 58.7457907,7.40477696 60.6284211,6.50118254 C60.9402325,6.35132611 61.1827247,6.36680424 61.4549967,6.55512148 C62.0663573,6.97842486 62.6894797,7.38648462 63.3035931,7.80650476 C63.3766661,7.85692594 63.4212106,7.94486986 63.4790183,8.01522499 C63.3904298,8.06400455 63.3063458,8.14444391 63.2125021,8.15593525 C62.5190595,8.24200303 61.8238651,8.31587592 61.128921,8.38927977 C60.9134558,8.41202793 60.6959886,8.42211217 60.4597526,8.4389974 C60.5673601,8.53608748 60.7380306,8.63857146 60.7217643,8.68406778 C60.6729656,8.82501256 60.5530959,8.94438177 60.4602531,9.07172456 C60.4187116,9.1284777 60.3396326,9.18382373 60.3396326,9.24057687 C60.3318749,10.2611953 60.3336266,11.2820483 60.3336266,12.2958657 C60.8171096,12.4295405 60.9432355,12.3786503 61.212004,12.0550167 C61.4877794,11.723175 61.7935849,11.4131434 62.0863773,11.0934965 C62.2120028,10.9556005 62.3566473,10.935901 62.5062967,11.0503454 C63.0555954,11.469662 63.6056448,11.888275 64.1441827,12.320021 C64.2205089,12.3809955 64.2330214,12.5116215 64.2755639,12.6098842 C64.1729614,12.6459998 64.0708594,12.7128372 63.9677565,12.7135407 C62.8771672,12.7212798 61.7863276,12.7179965 60.6954881,12.7179965 C60.5873801,12.7179965 60.4792721,12.7179965 60.3331261,12.7179965 Z M69.5553499,16.5648358 C70.0071954,16.4917558 70.4171947,16.4144187 70.5669479,15.8960002 C70.6501703,15.6077009 70.8029796,15.3402139 70.901718,15.0554621 C70.9908176,14.7988544 71.179596,14.7243554 71.3857711,14.8236874 C71.9939524,15.1171899 72.5887335,15.4400189 73.18469,15.7590639 C73.2347645,15.7860255 73.2958882,15.9012033 73.2796669,15.9243808 C73.2006762,16.0374301 73.1139275,16.1937598 73.0001433,16.2252149 C72.3936077,16.3912413 71.7786087,16.525103 71.1661958,16.6691344 C70.736919,16.7703585 70.3092878,16.8819887 69.8764847,16.966421 C69.6651375,17.0078093 69.6164736,17.1047763 69.6202351,17.310772 C69.6519724,19.2678492 69.6656077,21.225636 69.7041627,23.1829498 C69.7102751,23.4710126 69.6009576,23.6254503 69.3658663,23.7306949 C68.865827,23.954665 68.3392224,24.0346036 67.797807,23.9865931 C67.4388225,23.954665 67.2968274,23.7630961 67.3022345,23.3612744 C67.3248032,21.621072 67.3506633,19.8813427 67.3744075,18.1413768 C67.3772286,17.9441318 67.3748777,17.7468868 67.3748777,17.5013948 C67.1186281,17.5527164 66.884007,17.5933952 66.6522069,17.6480278 C65.0171466,18.0325846 63.3851425,18.4344063 61.7437348,18.7896365 C61.5211033,18.8378835 61.2491026,18.6571938 61.0003759,18.5826948 C61.0053129,18.5474556 61.0100147,18.5117434 61.0149516,18.4765041 C61.2201863,18.4379539 61.4268316,18.4064987 61.6299506,18.3603803 C63.4702456,17.9417668 65.3086599,17.5158216 67.1503655,17.1066683 C67.3816953,17.0551103 67.3908639,16.9307087 67.3918043,16.747181 C67.4115519,13.153727 67.4345909,9.56027297 67.4566895,5.96634594 C67.4576298,5.85518869 67.4566895,5.74379492 67.4566895,5.6 C68.3088956,5.674026 69.128424,5.74048385 69.9145695,6.01672147 C70.1294429,6.0921665 70.1607101,6.23406938 70.0050796,6.40577187 C69.9357277,6.48239943 69.8717828,6.58764407 69.7836236,6.6186262 C69.4631941,6.73143899 69.4671906,6.97456593 69.4700117,7.25151306 C69.4975174,10.2681319 69.5172651,13.2847507 69.5393637,16.3013694 C69.540304,16.3841461 69.5490024,16.4669228 69.5553499,16.5648358 Z M47.3712098,7.07733923 C44.496622,7.07733923 41.6421854,7.07733923 38.7786808,7.07733923 C38.7786808,7.61554791 38.7786808,8.13510698 38.7786808,8.66351267 C41.652513,8.66351267 44.5059419,8.66351267 47.3712098,8.66351267 C47.3712098,8.12458669 47.3712098,7.60359303 47.3712098,7.07733923 Z M47.3717136,9.07452143 C44.4981333,9.07452143 41.6436968,9.07452143 38.7832149,9.07452143 C38.7832149,9.63950904 38.7832149,10.1868034 38.7832149,10.7290768 C41.6600698,10.7290768 44.5129949,10.7290768 47.3717136,10.7290768 C47.3717136,10.1643283 47.3717136,9.62325041 47.3717136,9.07452143 Z M39.3022556,15.2098778 C41.6398258,15.2098778 43.9613753,15.2117523 46.2829249,15.204254 C46.3974601,15.2038374 46.5416453,15.1451006 46.6215091,15.0715754 C46.948855,14.7685181 47.2613759,14.453172 47.5691145,14.1349099 C47.7125824,13.9870263 47.8749402,13.9574495 48.0454279,14.0624261 C48.6295813,14.4215124 49.2115827,14.7847645 49.7799547,15.1628049 C49.8729697,15.2246661 49.8930552,15.369842 49.9466165,15.4764848 C49.8304076,15.5164758 49.7137203,15.5914591 49.5972722,15.5916674 C46.3376818,15.5981242 43.0778522,15.5945834 39.8177836,15.5999988 C39.4837425,15.6006237 39.4586356,15.3506796 39.3022556,15.2098778 Z M63.4567669,8.100246 C63.5707114,8.06054916 63.6683782,7.99136324 63.7570017,8.00089048 C64.4535553,8.07710841 65.141744,8.21117031 65.7291009,8.61471703 C66.0214228,8.81592329 66.2793805,9.08200553 66.5106608,9.35421243 C66.8276255,9.72668219 66.7720097,10.1542739 66.5454772,10.5469323 C66.3053798,10.9625015 65.9486249,11.2274495 65.4390397,11.1977336 C65.0680418,11.1759571 64.7237214,10.8445452 64.5964381,10.3811129 C64.5125623,10.0760144 64.4727722,9.75775915 64.3762359,9.45787788 C64.208032,8.93705536 63.9399007,8.47339628 63.4567669,8.100246 Z M64.8608616,15.3293568 C64.9454592,14.7427115 64.7406542,14.282698 64.3875082,13.8896724 C64.3375366,13.8340345 64.3125508,13.7492425 64.2755639,13.677581 C64.3517018,13.6504297 64.4331516,13.5876702 64.5024036,13.6021361 C65.0461894,13.7149696 65.5767937,13.8843311 66.0228003,14.2711253 C66.5069743,14.6913022 66.8575627,15.1922651 66.6891543,15.9529455 C66.5835057,16.4327661 66.221113,16.7848423 65.8034367,16.7993081 C65.4325842,16.8122161 65.1764304,16.6450801 65.0552394,16.250274 C64.9641494,15.9533906 64.9238179,15.6369227 64.8608616,15.3293568 Z M54.3697957,28.7687018 L52.9349076,33.4890338 L52.0478858,33.4890338 L51.0912938,30.1771191 C51.0507109,30.0348541 51.0246223,29.8840553 51.0130271,29.7247184 L50.9956346,29.7247184 C50.9869382,29.8442211 50.9536028,29.9921746 50.8956272,30.1685833 L49.8607685,33.4890338 L48.9998356,33.4890338 L47.5562512,28.7687018 L48.443273,28.7687018 L49.4042132,32.2684055 C49.433201,32.3736816 49.4549415,32.5173672 49.4694354,32.6994665 L49.5042206,32.6994665 C49.5158157,32.5429749 49.5433536,32.3950214 49.5868353,32.2556017 L50.621694,28.7687018 L51.4087084,28.7687018 L52.4174782,32.2726734 C52.446466,32.3751042 52.4696559,32.5202125 52.4870486,32.7080024 L52.5261819,32.7080024 C52.5319794,32.5828091 52.558068,32.4377009 52.6044485,32.2726734 L53.543648,28.7687018 L54.3697957,28.7687018 Z M54.2747689,33.0494369 C54.2747689,32.8957906 54.3283955,32.7663313 54.4356503,32.6610551 C54.5429051,32.555779 54.6762469,32.5031417 54.8356797,32.5031417 C54.9980113,32.5031417 55.1328025,32.5564903 55.2400573,32.6631891 C55.3473121,32.7698879 55.4009387,32.8986359 55.4009387,33.0494369 C55.4009387,33.1973926 55.3473121,33.3247179 55.2400573,33.4314167 C55.1328025,33.5381155 54.996562,33.5914641 54.8313316,33.5914641 C54.6718988,33.5914641 54.5392817,33.5381155 54.4334762,33.4314167 C54.3276708,33.3247179 54.2747689,33.1973926 54.2747689,33.0494369 Z M59.7410206,33.2756372 C59.3728758,33.4918802 58.9293693,33.6 58.410488,33.6 C57.7147812,33.6 57.1553254,33.3809151 56.7321037,32.9427386 C56.3088821,32.5045621 56.0972745,31.9369329 56.0972745,31.239834 C56.0972745,30.465912 56.3255498,29.8420889 56.7821074,29.3683462 C57.238665,28.8946034 57.8495734,28.6577356 58.6148509,28.6577356 C59.0554652,28.6577356 59.4323007,28.7345576 59.7453688,28.8882039 L59.7453688,29.7161826 C59.4062117,29.4714866 59.0293762,29.3491405 58.6148509,29.3491405 C58.1278561,29.3491405 57.7314541,29.5148768 57.425633,29.8463545 C57.1198119,30.1778321 56.9669036,30.6195586 56.9669036,31.1715471 C56.9669036,31.7149998 57.1111157,32.140366 57.3995441,32.4476586 C57.6879726,32.7549512 58.0771277,32.9085951 58.5670213,32.9085951 C58.9815466,32.9085951 59.3728758,32.774868 59.7410206,32.5074096 L59.7410206,33.2756372 Z M64.7028874,33.4890338 L63.854999,33.4890338 L63.854999,30.7746295 C63.854999,29.8242987 63.4955559,29.3491405 62.7766588,29.3491405 C62.408514,29.3491405 62.1026975,29.4878469 61.8592001,29.7652638 C61.6157027,30.0426807 61.4939558,30.3919362 61.4939558,30.8130409 L61.4939558,33.4890338 L60.6417193,33.4890338 L60.6417193,26.5024303 L61.4939558,26.5024303 L61.4939558,29.5454653 L61.5113484,29.5454653 C61.8794933,28.9536426 62.4027149,28.6577356 63.081029,28.6577356 C64.1622734,28.6577356 64.7028874,29.2993415 64.7028874,30.5825726 L64.7028874,33.4890338 Z M69.7995467,31.3422644 L66.4340819,31.3422644 C66.4485758,31.8458828 66.5891644,32.234972 66.855852,32.5095436 C67.1225396,32.7841152 67.4950271,32.9213989 67.9733255,32.9213989 C68.5124983,32.9213989 69.0067326,32.752106 69.4560432,32.4135151 L69.4560432,33.1604031 C69.0328216,33.4534692 68.4719164,33.6 67.7733108,33.6 C67.077604,33.6 66.5348159,33.3837603 66.1449302,32.9512745 C65.7550445,32.5187886 65.5601046,31.9184389 65.5601046,31.1502075 C65.5601046,30.4275008 65.7738863,29.8314191 66.2014561,29.3619443 C66.6290259,28.8924695 67.1602191,28.6577356 67.7950515,28.6577356 C68.4240864,28.6577356 68.915422,28.8561924 69.269073,29.253112 C69.6227239,29.6500316 69.7995467,30.2055685 69.7995467,30.9197392 L69.7995467,31.3422644 Z M68.9473102,30.6721992 C68.9444114,30.2454039 68.8415063,29.9153539 68.6385918,29.6820391 C68.4356773,29.4487244 68.1501519,29.3320688 67.7820071,29.3320688 C67.44285,29.3320688 67.1493531,29.4558375 66.9015076,29.7033788 C66.653662,29.95092 66.497855,30.2738569 66.4340819,30.6721992 L68.9473102,30.6721992 Z M74.7570654,33.4890338 L73.909177,33.4890338 L73.909177,30.804505 C73.909177,29.8342572 73.5482845,29.3491405 72.8264887,29.3491405 C72.4525462,29.3491405 72.1452804,29.4857129 71.9046817,29.7588619 C71.6640831,30.0320109 71.5437856,30.3777098 71.5437856,30.7959692 L71.5437856,33.4890338 L70.6915491,33.4890338 L70.6915491,28.7687018 L71.5437856,28.7687018 L71.5437856,29.5497333 L71.5611782,29.5497333 C71.9235255,28.9550652 72.4496459,28.6577356 73.1395552,28.6577356 C73.6671328,28.6577356 74.0686076,28.823472 74.3439915,29.1549496 C74.6193755,29.4864273 74.7570654,29.96941 74.7570654,30.6039123 L74.7570654,33.4890338 Z M80.0233024,33.4890338 L78.8623475,33.4890338 L76.8056745,31.2142264 L76.7882819,31.2142264 L76.7882819,33.4890338 L75.9360453,33.4890338 L75.9360453,26.5024303 L76.7882819,26.5024303 L76.7882819,30.932543 L76.8056745,30.932543 L78.757992,28.7687018 L79.8537247,28.7687018 L77.6796518,31.0392413 L80.0233024,33.4890338 Z M80.2717791,32.4689982 C80.7007983,32.7734455 81.1631466,32.9256669 81.6588376,32.9256669 C82.3226579,32.9256669 82.654563,32.7122724 82.654563,32.2854772 C82.654563,32.1033779 82.5820947,31.9532905 82.4371557,31.8352104 C82.2922168,31.7171304 81.9979952,31.5770014 81.5544821,31.4148192 C81.0211069,31.2042669 80.6747081,30.9958517 80.5152753,30.7895673 C80.3558425,30.5832829 80.2761273,30.3336114 80.2761273,30.0405453 C80.2761273,29.622286 80.4565735,29.2872567 80.8174714,29.0354475 C81.1783693,28.7836383 81.6226005,28.6577356 82.1501781,28.6577356 C82.5589059,28.6577356 82.9386401,28.7274445 83.2893923,28.8668643 L83.2893923,29.6735033 C82.9299438,29.4458791 82.5226716,29.3320688 82.0675634,29.3320688 C81.7950782,29.3320688 81.573325,29.3903966 81.402297,29.5070539 C81.2312691,29.6237113 81.1457564,29.7773553 81.1457564,29.9679905 C81.1457564,30.1557804 81.2073546,30.3023113 81.3305526,30.4075874 C81.4537507,30.5128636 81.7269565,30.6480134 82.1501781,30.8130409 C82.6864521,31.0093667 83.048794,31.2128027 83.2372146,31.4233551 C83.4256352,31.6339074 83.519844,31.8942486 83.519844,32.2043865 C83.519844,32.6368723 83.3393978,32.9775921 82.9784999,33.226556 C82.617602,33.4755199 82.150181,33.6 81.5762229,33.6 C81.077633,33.6 80.6428228,33.5075291 80.2717791,33.3225845 L80.2717791,32.4689982 Z M84.0987799,31.180083 C84.0987799,30.4004703 84.3205331,29.785183 84.7640462,29.3342027 C85.2075593,28.8832224 85.8090468,28.6577356 86.5685267,28.6577356 C87.2903225,28.6577356 87.8563005,28.8746866 88.2664776,29.3085951 C88.6766548,29.7425037 88.8817403,30.342142 88.8817403,31.1075282 C88.8817403,31.8529972 88.6628858,32.4547695 88.2251702,32.9128631 C87.7874547,33.3709566 87.2004609,33.6 86.4641712,33.6 C85.7452742,33.6 85.1713247,33.3780698 84.7423055,32.9342027 C84.3132863,32.4903357 84.0987799,31.9056349 84.0987799,31.180083 Z M84.968409,31.1544754 C84.968409,31.697928 85.108273,32.1261395 85.3880051,32.4391227 C85.6677372,32.7521059 86.0438481,32.9085951 86.5163489,32.9085951 C87.0033437,32.9085951 87.3743818,32.7556625 87.6294743,32.4497925 C87.8845668,32.1439226 88.0121111,31.7050414 88.0121111,31.1331357 C88.0121111,30.5583848 87.8845668,30.1173696 87.6294743,29.8100771 C87.3743818,29.5027845 87.0033437,29.3491405 86.5163489,29.3491405 C86.0380505,29.3491405 85.6604903,29.5098976 85.383657,29.8314167 C85.1068236,30.1529358 84.968409,30.593951 84.968409,31.1544754 Z M95.5145599,33.0494369 C95.5145599,32.8957906 95.5681865,32.7663313 95.6754413,32.6610551 C95.7826961,32.555779 95.9160379,32.5031417 96.0754707,32.5031417 C96.2378023,32.5031417 96.3725935,32.5564903 96.4798483,32.6631891 C96.5871031,32.7698879 96.6407297,32.8986359 96.6407297,33.0494369 C96.6407297,33.1973926 96.5871031,33.3247179 96.4798483,33.4314167 C96.3725935,33.5381155 96.236353,33.5914641 96.0711226,33.5914641 C95.9116898,33.5914641 95.7790727,33.5381155 95.6732672,33.4314167 C95.5674618,33.3247179 95.5145599,33.1973926 95.5145599,33.0494369 Z M92.1304376,27.2151749 C91.9710048,27.1326611 91.7985301,27.0914049 91.6130083,27.0914049 C91.079633,27.0914049 90.8129494,27.4157644 90.8129494,28.0644932 L90.8129494,28.7687018 L91.9391192,28.7687018 L91.9391192,29.4601067 L90.8129494,29.4601067 L90.8129494,33.4890338 L89.9694091,33.4890338 L89.9694091,29.4601067 L89.1476096,29.4601067 L89.1476096,28.7687018 L89.9694091,28.7687018 L89.9694091,28.0260818 C89.9694091,27.5196181 90.1179693,27.1219931 90.4150941,26.833195 C90.7122189,26.5443969 91.0897791,26.4 91.5477861,26.4 C91.7912834,26.4 91.9854987,26.42703 92.1304376,26.4810907 L92.1304376,27.2151749 Z M94.99215,33.4420865 C94.8066282,33.5416721 94.5558876,33.5914641 94.2399208,33.5914641 C93.3789836,33.5914641 92.9485215,33.123419 92.9485215,32.1873148 L92.9485215,29.4601067 L92.1223738,29.4601067 L92.1223738,28.7687018 L92.9485215,28.7687018 L92.9485215,27.6334321 L93.7964099,27.3688204 L93.7964099,28.7687018 L94.99215,28.7687018 L94.99215,29.4601067 L93.7964099,29.4601067 L93.7964099,32.0379372 C93.7964099,32.3480751 93.8500365,32.5700053 93.9572913,32.7037344 C94.0645461,32.8374636 94.2428183,32.9043272 94.4921132,32.9043272 C94.6834326,32.9043272 94.8501098,32.8516899 94.99215,32.7464138 L94.99215,33.4420865 Z M100.980812,33.2756372 C100.612667,33.4918802 100.16916,33.6 99.650279,33.6 C98.9545722,33.6 98.3951164,33.3809151 97.9718947,32.9427386 C97.5486731,32.5045621 97.3370655,31.9369329 97.3370655,31.239834 C97.3370655,30.465912 97.5653408,29.8420889 98.0218984,29.3683462 C98.478456,28.8946034 99.0893644,28.6577356 99.8546419,28.6577356 C100.295256,28.6577356 100.672092,28.7345576 100.98516,28.8882039 L100.98516,29.7161826 C100.646003,29.4714866 100.269167,29.3491405 99.8546419,29.3491405 C99.3676471,29.3491405 98.9712451,29.5148768 98.665424,29.8463545 C98.3596029,30.1778321 98.2066946,30.6195586 98.2066946,31.1715471 C98.2066946,31.7149998 98.3509067,32.140366 98.6393351,32.4476586 C98.9277636,32.7549512 99.3169187,32.9085951 99.8068123,32.9085951 C100.221338,32.9085951 100.612667,32.774868 100.980812,32.5074096 L100.980812,33.2756372 Z M101.559747,31.180083 C101.559747,30.4004703 101.781501,29.785183 102.225014,29.3342027 C102.668527,28.8832224 103.270014,28.6577356 104.029494,28.6577356 C104.75129,28.6577356 105.317268,28.8746866 105.727445,29.3085951 C106.137622,29.7425037 106.342708,30.342142 106.342708,31.1075282 C106.342708,31.8529972 106.123853,32.4547695 105.686138,32.9128631 C105.248422,33.3709566 104.661428,33.6 103.925139,33.6 C103.206242,33.6 102.632292,33.3780698 102.203273,32.9342027 C101.774254,32.4903357 101.559747,31.9056349 101.559747,31.180083 Z M102.429377,31.1544754 C102.429377,31.697928 102.569241,32.1261395 102.848973,32.4391227 C103.128705,32.7521059 103.504816,32.9085951 103.977317,32.9085951 C104.464311,32.9085951 104.835349,32.7556625 105.090442,32.4497925 C105.345534,32.1439226 105.473079,31.7050414 105.473079,31.1331357 C105.473079,30.5583848 105.345534,30.1173696 105.090442,29.8100771 C104.835349,29.5027845 104.464311,29.3491405 103.977317,29.3491405 C103.499018,29.3491405 103.121458,29.5098976 102.844625,29.8314167 C102.567791,30.1529358 102.429377,30.593951 102.429377,31.1544754 Z M114.22218,33.4890338 L113.369944,33.4890338 L113.369944,30.7788975 C113.369944,30.2667431 113.288779,29.900416 113.126448,29.6799052 C112.964116,29.4593943 112.697433,29.3491405 112.326389,29.3491405 C112.013321,29.3491405 111.745188,29.4928261 111.521982,29.7802015 C111.298776,30.067577 111.187175,30.4075855 111.187175,30.8002371 L111.187175,33.4890338 L110.334938,33.4890338 L110.334938,30.6935388 C110.334938,29.7972688 109.982742,29.3491405 109.278339,29.3491405 C108.953676,29.3491405 108.684818,29.4857129 108.471758,29.7588619 C108.258697,30.0320109 108.152169,30.3805551 108.152169,30.804505 L108.152169,33.4890338 L107.299932,33.4890338 L107.299932,28.7687018 L108.152169,28.7687018 L108.152169,29.5155898 L108.169562,29.5155898 C108.511617,28.9436842 109.011649,28.6577356 109.669672,28.6577356 C109.991436,28.6577356 110.275512,28.744516 110.521908,28.9180794 C110.768305,29.0916428 110.93933,29.3263767 111.03499,29.6222881 C111.391539,28.9792499 111.924907,28.6577356 112.635107,28.6577356 C113.693161,28.6577356 114.22218,29.2979189 114.22218,30.5783047 L114.22218,33.4890338 Z" id="Combined-Shape" fill="#FFFFFF"></path>
                <polygon id="Fill-29" fill="#1C96DF" points="21.5803734 7.33783401 18.2981594 20.4465112 24.5639098 31.5981494 17.4032065 36 10.6407399 23.4795817 1.1931986 27.2944481 0 3.22873194 9.94490537 0 10.9389856 20.9355585 13.1271282 11.8376216"></polygon>
            </g>
        </g>
    </g>
</svg>