<?xml version="1.0" encoding="utf-8"?>
<!-- Generator: Adobe Illustrator 23.0.0, SVG Export Plug-In . SVG Version: 6.00 Build 0)  -->
<svg version="1.1" id="图层_1" xmlns="http://www.w3.org/2000/svg" xmlns:xlink="http://www.w3.org/1999/xlink" x="0px" y="0px"
	 viewBox="0 0 48 48" style="enable-background:new 0 0 48 48;" xml:space="preserve">
<style type="text/css">
	.st0{fill:#FFFFFF;}
</style>
<title>48</title>
<path class="st0" d="M37.5,7.7h-0.5v2.2c1.6,0.1,2.9,1.4,2.9,3v26.6c0,1.7-1.3,3-3,3H16.1c-1.3,0-2.3-1-2.5-2.2h-2.2
	c0.1,2.2,2,4,4.3,4h21.8c2.4,0,4.3-1.9,4.3-4.3c0,0,0,0,0,0V12C41.8,9.6,39.8,7.7,37.5,7.7C37.5,7.7,37.5,7.7,37.5,7.7z"/>
<path class="st0" d="M33.8,3.7H9.6c-1.7,0-3.1,1.4-3.1,3.1v30.5c0,1.7,1.4,3.1,3.1,3.1h24.2c1.7,0,3.1-1.4,3.1-3.1c0,0,0,0,0,0V6.8
	C36.9,5.1,35.6,3.7,33.8,3.7L33.8,3.7z M10.6,13.2c0-0.4,0.3-0.8,0.7-0.8h0.1h20.2c0.5,0,0.9,0.4,0.9,0.9v0.3c0,0.5-0.4,0.9-0.9,0.9
	H11.5h-0.1c-0.4-0.1-0.7-0.4-0.7-0.8L10.6,13.2z M32.6,17.6v0.3c0,0.5-0.4,0.9-0.9,0.9H11.5c-0.1,0-0.1,0-0.2,0
	c-0.4-0.1-0.7-0.4-0.7-0.8v-0.3c0-0.4,0.3-0.8,0.7-0.8c0.1,0,0.1,0,0.2,0h20.2C32.2,16.8,32.5,17.2,32.6,17.6z M10.5,22
	c0-0.5,0.4-0.8,0.8-0.9h20.2c0.5,0,0.9,0.4,0.9,0.9v0.3c0,0.5-0.4,0.9-0.9,0.9H11.4c-0.5,0-0.8-0.4-0.8-0.9L10.5,22z M10.7,26.4
	c0-0.4,0.3-0.7,0.6-0.8c0.1,0,0.1,0,0.2,0h20.2c0.5,0,0.9,0.4,0.9,0.9v0.3c0,0.5-0.4,0.9-0.9,0.9H11.6c-0.1,0-0.1,0-0.2,0
	c-0.4-0.1-0.6-0.4-0.6-0.8V26.4z M32.6,31c0,0.5-0.4,0.9-0.9,0.9c0,0,0,0,0,0H11.6c-0.1,0-0.2,0-0.2,0c-0.4-0.1-0.6-0.4-0.6-0.8
	v-0.3c0-0.4,0.3-0.7,0.6-0.8c0.1,0,0.2,0,0.2,0h20.2c0.5,0,0.9,0.4,0.9,0.9c0,0,0,0,0,0V31z"/>
</svg>
