<svg xmlns="http://www.w3.org/2000/svg" viewBox="0 0 29.63 39.5"><defs><style>.cls-1,.cls-3,.cls-5{fill:none;}.cls-2,.cls-4{fill:#fff;}.cls-2,.cls-3,.cls-5{stroke:#fff;stroke-miterlimit:10;}.cls-3{stroke-width:2px;}</style></defs><title>资源 1</title><g id="图层_2" data-name="图层 2"><g id="Your_Icons" data-name="Your Icons"><path class="cls-1" d="M21.23,4.45h-2a1,1,0,0,1-1-1v-2H11.36v2a1,1,0,0,1-1,1h-2v1H21.23Z"/><path class="cls-1" d="M7.41,8.4v-2H2a.49.49,0,0,0-.49.5v30.6A.49.49,0,0,0,2,38H27.65a.49.49,0,0,0,.49-.49V6.92a.49.49,0,0,0-.49-.5H22.22v2Z"/><rect class="cls-1" x="8.4" y="6.42" width="12.83" height="0.99"/><path class="cls-2" d="M27.65,5.44H22.22v1h5.43a.49.49,0,0,1,.49.5v30.6a.49.49,0,0,1-.49.49H2a.49.49,0,0,1-.49-.49V6.92A.49.49,0,0,1,2,6.42H7.41v-1H2A1.48,1.48,0,0,0,.5,6.92v30.6A1.48,1.48,0,0,0,2,39H27.65a1.48,1.48,0,0,0,1.48-1.48V6.92A1.48,1.48,0,0,0,27.65,5.44Z"/><path class="cls-2" d="M21.23,3.46h-2v-2a1,1,0,0,0-1-1H11.36a1,1,0,0,0-1,1v2h-2a1,1,0,0,0-1,1v4H22.22V4.45A1,1,0,0,0,21.23,3.46Zm0,3v1H8.4v-3h2.47A.49.49,0,0,0,11.36,4V2a.49.49,0,0,1,.49-.49h5.93a.49.49,0,0,1,.49.49V4a.49.49,0,0,0,.49.49h2.47v2Z"/><circle class="cls-3" cx="13.54" cy="20.96" r="5.41"/><path class="cls-4" d="M22,29.86a.49.49,0,0,1-.7,0L16.92,25.5a.51.51,0,0,1,0-.71.49.49,0,0,1,.7,0L22,29.16A.5.5,0,0,1,22,29.86Z"/><path class="cls-5" d="M22,29.86a.49.49,0,0,1-.7,0L16.92,25.5a.51.51,0,0,1,0-.71.49.49,0,0,1,.7,0L22,29.16A.5.5,0,0,1,22,29.86Z"/></g></g></svg>