<?xml version="1.0" standalone="no"?><!DOCTYPE svg PUBLIC "-//W3C//DTD SVG 1.1//EN" "http://www.w3.org/Graphics/SVG/1.1/DTD/svg11.dtd"><svg t="1567761537858" class="icon" viewBox="0 0 1024 1024" version="1.1" xmlns="http://www.w3.org/2000/svg" p-id="9339" xmlns:xlink="http://www.w3.org/1999/xlink" width="200" height="200"><defs><style type="text/css"></style></defs><path d="M511.9 63.9C264.5 63.9 64 264.4 64 511.8s200.5 447.9 447.9 447.9 447.9-200.5 447.9-447.9S759.3 63.9 511.9 63.9z m227 623.5c-9.3 9.4-18.6 18.7-27.9 28-1.1 1.1-10.8 10.9-12.1 12.1-5.7 4.3-5.7 4.3-8.6 6-11.5 6.5-24 9.3-37 10.6-27.4 2.6-53.7-2.6-79.3-11.8-42.2-15.1-79.2-39.3-113.6-67.4-40-32.7-76.2-69.4-108.2-110-25.7-32.6-47.7-67.5-61.5-107-10-28.6-14.8-57.8-9.5-88 2.2-12.2 6-23.9 13.9-34.7 0.9-1.1 10.5-10.4 11.1-11 8.9-9 17.9-17.8 26.6-26.9 10.1-10.7 20.1-11.1 30.5-0.7 28.9 28.7 57.7 57.5 86.5 86.3 9.9 9.9 9.7 19.7-0.2 29.6-4 4-8 8.1-12 12.1-5.9 5.7-20.3 20.4-26.5 26.3-9 9.9-8 20.5-3.1 31.3 5.6 12.4 13.5 23.4 22.9 33.1 17.7 18.4 35.8 36.5 54.1 54.3 12.7 12.4 25.8 24.4 39.2 35.9 10.4 8.9 21.6 17.1 34.3 22.7 9.4 4.1 18.4 4.4 26.6-2.9 0.2-0.1 31.1-32.3 42.7-42.7 6.9-6.2 16.9-5.2 23.8 1.7l56.4 56.1c10.6 10.6 21.5 21 31.8 32 7.2 7.6 6.5 17.4-0.9 25z" p-id="9340" fill="#009fe9"></path></svg>